<?xml version="1.0" encoding="UTF-8" standalone="no"?>
<!DOCTYPE svg PUBLIC "-//W3C//DTD SVG 1.1//EN" "http://www.w3.org/Graphics/SVG/1.1/DTD/svg11.dtd">
<svg width="100%" height="100%" viewBox="0 0 378 378" version="1.1" xmlns="http://www.w3.org/2000/svg" xmlns:xlink="http://www.w3.org/1999/xlink" xml:space="preserve" xmlns:serif="http://www.serif.com/" style="fill-rule:evenodd;clip-rule:evenodd;stroke-linejoin:round;stroke-miterlimit:2;">
    <g transform="matrix(0.0377953,0,0,0.0377953,0,0)">
        <g id="Edge.Cuts">
            <path id="umrandung" d="M2038.48,8218.23C2038.43,8218.28 2038.38,8218.34 2038.33,8218.39C2037.86,8218.89 2037.39,8219.39 2036.91,8219.87C2021.6,8235.5 2001.24,8243.42 1980.82,8243.43L1980.35,8243.96C1980.32,8243.99 1980.28,8244 1980.24,8243.98C1980.2,8243.97 1980.17,8243.92 1980.18,8243.88C1980.18,8243.88 1980.22,8243.43 1980.22,8243.43C1976.8,8243.4 1973.38,8243.16 1969.98,8242.69C1947.18,8242.96 1924.07,8237.68 1907.62,8226.66C1896.64,8219.31 1888.63,8209.39 1885.66,8196.86C1880.72,8176 1889.75,8147.87 1922.36,8112.22L1922.39,8112.18L1922.44,8112.28L1922.4,8112.18C1922.59,8111.97 1922.64,8111.91 1922.84,8111.7C1922.93,8111.6 1923.02,8111.5 1923.12,8111.4C2159.49,7853.51 2309.51,7755.44 2591.18,7616.69C2644.75,7590.3 2698.47,7567.87 2751.12,7548.75C2743.21,7542.44 2738.15,7535.66 2734.65,7530.34C2723.73,7513.73 2720.22,7496.26 2722.21,7478.41C2723.85,7463.79 2728.93,7434.42 2766.04,7416.4C2786.64,7406.39 2816.34,7388.86 2854.69,7369.53C2660.91,7360.26 2415.98,7376.32 2196.68,7431.86C1784.76,7536.18 1440.9,7749.48 1381.52,7786.85C1333.11,7817.32 1293.04,7792.81 1273.23,7775.11C1264.73,7767.52 1259.96,7761.18 1259.85,7760.96C1257.44,7756.1 1230.92,7704.86 1281.4,7664.58C1303.6,7646.87 1325.94,7629.76 1348.4,7613.23C1333.16,7605.27 1322.26,7588.91 1315.22,7570.25C1299.76,7557 1289.26,7540.67 1290.57,7522.52C1291.45,7510.41 1297.57,7497.49 1310.98,7484.13L1310.98,7484.13C1311.86,7482.68 1312.83,7481.5 1313.89,7480.62C1752.7,7115.55 2073.4,7033.86 2443.79,6985.02C2834.34,6933.52 3173.2,6976.77 3393.07,7023.54C3244.44,6958.3 3018.65,6895.45 2573.21,6856.03C2267.8,6829 2074.85,6772.7 1941.69,6703.12C1741.95,6598.76 1676.74,6464.5 1568.35,6354.27C1413.29,6196.59 1417.91,6184.9 1314.43,6147.56C1052.32,6052.98 920.722,6276.43 899.415,6312.9C897.75,6315.75 896.753,6317.47 896.419,6317.8C896.366,6317.86 896.32,6317.88 896.289,6317.89C896.251,6317.9 896.219,6317.89 896.193,6317.88C896.165,6317.86 896.137,6317.83 896.127,6317.78C896.115,6317.72 896.131,6317.58 896.186,6317.37C1020.32,5842.24 1058.7,5757.83 1193.75,5581.49C1185.02,5592.54 1178.16,5600.96 1172.75,5607.05C1166.69,5613.88 1162.44,5617.8 1159.41,5619.25C1158.12,5619.87 1157.05,5620.04 1156.14,5619.81C1155.24,5619.59 1154.5,5618.95 1153.89,5617.94C1152.7,5615.97 1152.01,5612.53 1151.47,5607.87C1148.78,5584.7 1149.85,5531.33 1111.45,5479.28C1099.75,5463.42 1079.06,5450.06 1057.04,5439.28C1024.01,5423.1 987.972,5412.72 974.72,5408.35C970.956,5408.49 968.506,5408.39 967.564,5408.05C967.291,5407.95 967.136,5407.82 967.086,5407.69C967.032,5407.54 967.082,5407.36 967.274,5407.18C967.58,5406.88 968.275,5406.51 969.384,5406.07C969.386,5406.06 969.391,5406.04 969.398,5406.02C969.42,5405.97 969.474,5405.92 969.571,5405.88C969.68,5405.84 969.859,5405.81 970.111,5405.8C1931.4,5057.92 2036.55,4158.87 2068.15,3942.15C2099.76,3725.43 2077.18,3576.45 1914.64,3292.01C1752.09,3007.54 1639.2,2596.63 1670.81,1707.09C1702.41,817.555 2166.7,108.872 2166.7,108.872C2166.72,108.836 2166.77,108.819 2166.81,108.83C2166.85,108.841 2166.88,108.877 2166.88,108.92C2166.88,108.92 2169.32,145.48 2222.95,240.055C2303.41,381.958 2499.08,654.426 2974.53,1129.87C3766.96,1922.31 3839.07,1999.19 3960.98,2141.42C4082.67,2283.39 4111.2,2443.45 4122.21,2469.6C4122.32,2469.37 4122.49,2468.86 4122.74,2468.09C4126.22,2457.19 4143.68,2394.1 4178.77,2303.06C4215.1,2208.8 4225.26,2074.07 4215.9,1893.57C4215.82,1892.01 4215.85,1891.03 4215.99,1890.6C4216.07,1890.35 4216.2,1890.26 4216.34,1890.28C4216.39,1890.29 4216.45,1890.31 4216.51,1890.36C4216.59,1890.42 4216.67,1890.51 4216.76,1890.64C4217.07,1891.11 4217.47,1892.06 4217.97,1893.47C4239.43,1894.57 4261.34,1907.38 4283.45,1927.2C4316.64,1956.94 4350.32,2002.45 4383.73,2047.83C4417.14,2093.21 4450.29,2138.45 4482.43,2167.66C4503.81,2187.08 4524.73,2199.42 4544.99,2199.97C4544.41,2191.26 4544.56,2185.79 4545.28,2183.34C4545.44,2182.8 4545.63,2182.4 4545.84,2182.15C4546.07,2181.87 4546.33,2181.75 4546.62,2181.78C4546.84,2181.8 4547.07,2181.92 4547.32,2182.13C4547.68,2182.43 4548.06,2182.92 4548.48,2183.61C4550.06,2186.22 4552.07,2191.7 4554.36,2199.84C4598.2,2197.59 4645.05,2172.18 4689.73,2137.4C4756.81,2085.18 4819.02,2011.81 4858.84,1963.81C4858.97,1963.3 4859.07,1962.96 4859.15,1962.79C4859.19,1962.7 4859.23,1962.65 4859.27,1962.62C4859.3,1962.6 4859.34,1962.59 4859.37,1962.6C4859.41,1962.61 4859.47,1962.65 4859.5,1962.75C4859.52,1962.8 4859.53,1962.87 4859.54,1962.96C4906.64,1906.25 4954.03,1878.39 5001.05,1878.64C5048.08,1878.89 5094.76,1907.24 5140.46,1962.96C5140.47,1962.87 5140.48,1962.8 5140.5,1962.75C5140.54,1962.6 5140.63,1962.58 5140.7,1962.6C5140.72,1962.61 5140.74,1962.62 5140.76,1962.64C5140.79,1962.67 5140.82,1962.72 5140.85,1962.79C5140.94,1962.97 5141.04,1963.31 5141.16,1963.82C5179.35,2010.37 5245.2,2083.54 5313.48,2136.11C5358.96,2171.12 5405.51,2196.99 5445.67,2199.75C5447.95,2191.64 5449.96,2186.19 5451.53,2183.59C5451.95,2182.9 5452.33,2182.41 5452.69,2182.12C5452.94,2181.91 5453.17,2181.8 5453.39,2181.78C5453.67,2181.75 5453.93,2181.87 5454.16,2182.15C5454.38,2182.41 5454.56,2182.81 5454.72,2183.35C5455.44,2185.8 5455.59,2191.27 5455.01,2199.97C5477.63,2199.4 5499.73,2186.94 5521.53,2167.36C5554.3,2137.9 5586.37,2092.33 5618.44,2046.76C5650.51,2001.18 5682.59,1955.6 5715.36,1926.13C5737.21,1906.5 5759.36,1894.02 5782.03,1893.46C5782.53,1892.06 5782.93,1891.11 5783.24,1890.64C5783.33,1890.51 5783.41,1890.42 5783.49,1890.36C5783.55,1890.31 5783.61,1890.29 5783.66,1890.28C5783.78,1890.26 5783.89,1890.32 5783.96,1890.49C5784.05,1890.67 5784.11,1890.99 5784.13,1891.47C5784.16,1891.99 5784.15,1892.68 5784.1,1893.57C5774.74,2074.07 5784.9,2208.8 5821.23,2303.06C5856.32,2394.1 5873.78,2457.19 5877.26,2468.09C5877.51,2468.86 5877.69,2469.37 5877.79,2469.6C5888.8,2443.45 5917.33,2283.39 6039.02,2141.42C6160.93,1999.19 6233.04,1922.31 7025.48,1129.87C7500.92,654.426 7696.59,381.958 7777.05,240.055C7830.68,145.48 7833.12,108.92 7833.12,108.92C7833.12,108.877 7833.15,108.841 7833.19,108.83C7833.23,108.819 7833.28,108.836 7833.3,108.872C7833.3,108.872 8297.59,817.555 8329.19,1707.09C8360.8,2596.63 8247.91,3007.54 8085.36,3292.01C7922.82,3576.45 7900.24,3725.43 7931.85,3942.15C7963.45,4158.86 8068.6,5057.9 9029.86,5405.79C9029.86,5405.79 9029.87,5405.79 9029.87,5405.79L9030.04,5405.8C9030.04,5405.8 9030.04,5405.8 9030.04,5405.8C9030.1,5405.8 9030.1,5405.85 9030.08,5405.9C9030.1,5405.9 9030.12,5405.9 9030.13,5405.9C9030.13,5405.9 9030.13,5405.9 9030.13,5405.9C9030.14,5405.85 9030.09,5405.8 9030.04,5405.8C9030.25,5405.81 9030.4,5405.83 9030.52,5405.86C9030.6,5405.88 9030.67,5405.91 9030.71,5405.95C9030.75,5405.98 9030.77,5406.02 9030.78,5406.07C9030.78,5406.09 9030.78,5406.11 9030.78,5406.14C9031.82,5406.55 9032.47,5406.91 9032.75,5407.2C9032.89,5407.34 9032.94,5407.48 9032.93,5407.6C9032.93,5407.68 9032.89,5407.75 9032.83,5407.82C9032.75,5407.91 9032.61,5407.99 9032.43,5408.05C9031.49,5408.39 9029.1,5408.48 9025.43,5408.36C9012.16,5412.72 8976.13,5423.11 8943.11,5439.29C8921.09,5450.07 8900.41,5463.42 8888.72,5479.28C8850.31,5531.33 8851.38,5584.7 8848.7,5607.87C8848.16,5612.53 8847.46,5615.97 8846.27,5617.94C8845.67,5618.95 8844.93,5619.59 8844.02,5619.81C8843.12,5620.04 8842.05,5619.87 8840.76,5619.25C8837.73,5617.8 8833.48,5613.88 8827.41,5607.05C8820.58,5599.36 8811.44,5587.96 8799.14,5572.24C8940,5755.02 8977.52,5834 9103.81,6317.37C9103.87,6317.58 9103.89,6317.72 9103.87,6317.78C9103.86,6317.86 9103.81,6317.89 9103.76,6317.9C9103.74,6317.9 9103.71,6317.9 9103.69,6317.88C9103.66,6317.87 9103.62,6317.85 9103.58,6317.8C9103.25,6317.47 9102.25,6315.75 9100.59,6312.9C9079.28,6276.43 8947.68,6052.98 8685.57,6147.56C8582.09,6184.9 8586.71,6196.59 8431.66,6354.27C8323.26,6464.5 8258.05,6598.76 8058.31,6703.12C7925.15,6772.7 7732.2,6829 7426.79,6856.03C6975.68,6895.96 6749.84,6959.91 6601.29,7026.03C6820.74,6978.33 7164.68,6932.61 7562.17,6985.02C7932.55,7033.86 8253.25,7115.55 8692.06,7480.62C8693.12,7481.5 8694.1,7482.68 8694.97,7484.13C8708.39,7497.49 8714.51,7510.41 8715.38,7522.52C8716.69,7540.67 8706.19,7557 8690.73,7570.25C8683.69,7588.91 8672.79,7605.27 8657.55,7613.23C8680.02,7629.76 8702.36,7646.87 8724.55,7664.58C8775.03,7704.86 8748.51,7756.1 8746.1,7760.96C8742.9,7767.45 8704.71,7830.84 8638.46,7795.42C8637.56,7794.94 8632.74,7792.08 8624.44,7786.85C8565.06,7749.48 8221.2,7536.18 7809.28,7431.86C7589.98,7376.32 7345.04,7360.26 7151.26,7369.53C7189.62,7388.86 7219.32,7406.39 7239.91,7416.4C7277.02,7434.42 7282.1,7463.79 7283.74,7478.41C7285.74,7496.26 7282.22,7513.73 7271.3,7530.34C7267.8,7535.66 7262.74,7542.44 7254.83,7548.75C7307.48,7567.87 7361.2,7590.3 7414.78,7616.69C7696.45,7755.44 7846.46,7853.51 8082.84,8111.4C8082.93,8111.5 8083.02,8111.6 8083.12,8111.7C8083.26,8111.86 8083.41,8112.02 8083.56,8112.18C8116.6,8148.12 8125.69,8176.41 8120.63,8197.32C8117.59,8209.88 8109.45,8219.79 8098.32,8227.11C8081.65,8238.08 8058.27,8243.23 8035.3,8242.78C8011.62,8245.84 7986.91,8238.1 7969.04,8219.87C7968.56,8219.39 7968.09,8218.89 7967.62,8218.39C7967.58,8218.34 7967.53,8218.28 7967.48,8218.23C7967.48,8218.23 7967.47,8218.23 7967.47,8218.22L7967.2,8217.93C7953.28,8203 7751.91,7992.77 7371.76,7816.36C7213.61,7742.97 7061.43,7700.04 6967.55,7683.16C6953.39,7680.62 6936.15,7678.23 6916.66,7675.99C6953,7690.94 6991.38,7707.93 7030.7,7727.06C7167.56,7793.64 7309.06,7897.36 7438.23,7993.87C7878.28,8322.66 8093.99,8872.64 8093.99,8872.64C8109.17,8911.44 8091.45,8955.35 8053.58,8972.74C8015.72,8990.12 7970.86,8974.94 7951.34,8938.14C7951.34,8938.14 7635.14,8339.01 7187.18,8073.8C6766.43,7824.69 6621.16,7828.46 6576.54,7820.82C6553.27,7816.83 6526.64,7815.17 6499.21,7815.73C6479.85,7835.2 6457.21,7857.08 6431.95,7879.35C6374.9,7929.65 6299.99,7974.65 6243.21,8012.92C6239.87,8015.17 6236.21,8019.7 6232.11,8026.2C6225.94,8035.99 6218.79,8050.24 6210.26,8067.99C6177.05,8137.04 6122.92,8258.99 6024.56,8376.47C5914.8,8507.58 5722.76,8582.85 5673.65,8608.98C5620.91,8637.03 5450.31,8729.48 5355.46,8850.75C5260.59,8972.03 5183.55,9224.69 5167.94,9266.72C5152.32,9308.75 5117.75,9437.03 5097.58,9563.83C5077.41,9690.64 5066.84,9847.22 5064.92,9890.45C5064.9,9890.72 5064.89,9890.9 5064.87,9891C5064.86,9891.07 5064.84,9891.11 5064.83,9891.13C5064.8,9891.16 5064.76,9891.17 5064.73,9891.17C5064.71,9891.17 5064.67,9891.16 5064.65,9891.13C5064.63,9891.11 5064.61,9891.07 5064.6,9891.01C5064.57,9890.91 5064.54,9890.73 5064.5,9890.47C5064.32,9889.02 5064.02,9885.05 5063.62,9878.87C5059.72,9818.11 5045.94,9544.18 5026.91,9366.76C5021.2,9313.54 5015.02,9269 5008.48,9241.51C5005.72,9229.86 5002.89,9221.27 5000,9216.38C4997.11,9221.27 4994.28,9229.86 4991.52,9241.51C4984.98,9269 4978.8,9313.54 4973.09,9366.76C4954.06,9544.18 4940.28,9818.11 4936.38,9878.87C4935.98,9885.05 4935.69,9889.02 4935.5,9890.47C4935.46,9890.73 4935.43,9890.91 4935.4,9891.01C4935.39,9891.07 4935.37,9891.11 4935.35,9891.13C4935.33,9891.16 4935.29,9891.17 4935.27,9891.17C4935.24,9891.17 4935.2,9891.16 4935.17,9891.13C4935.16,9891.11 4935.14,9891.07 4935.13,9891C4935.11,9890.9 4935.1,9890.72 4935.08,9890.45C4933.16,9847.22 4922.59,9690.64 4902.42,9563.83C4882.25,9437.03 4847.68,9308.75 4832.07,9266.72C4816.45,9224.69 4739.41,8972.03 4644.54,8850.75C4549.69,8729.48 4379.09,8637.03 4326.36,8608.98C4277.24,8582.85 4085.2,8507.58 3975.44,8376.47C3877.08,8258.99 3822.95,8137.04 3789.74,8067.99C3781.21,8050.24 3774.06,8035.99 3767.89,8026.2C3763.79,8019.7 3760.13,8015.17 3756.79,8012.92C3700.01,7974.65 3625.11,7929.65 3568.05,7879.35C3542.75,7857.05 3520.08,7835.14 3500.71,7815.64C3475.41,7815.43 3450.97,7817.12 3429.41,7820.82C3384.79,7828.46 3239.52,7824.69 2818.77,8073.8C2370.82,8339.01 2054.62,8938.14 2054.62,8938.14C2035.09,8974.94 1990.24,8990.12 1952.37,8972.74C1914.51,8955.35 1896.78,8911.44 1911.97,8872.64C1911.97,8872.64 2127.67,8322.66 2567.72,7993.87C2696.89,7897.36 2838.39,7793.64 2975.26,7727.06C3014.58,7707.93 3052.95,7690.94 3089.3,7675.99C3069.8,7678.23 3052.57,7680.62 3038.41,7683.16C2944.53,7700.04 2792.34,7742.97 2634.19,7816.36C2254.04,7992.77 2052.67,8203 2038.75,8217.93L2038.48,8218.22C2038.48,8218.23 2038.48,8218.23 2038.48,8218.23C2038.45,8218.25 2038.43,8218.26 2038.41,8218.26C2038.44,8218.26 2038.46,8218.25 2038.48,8218.23ZM2038.33,8218.24C2038.35,8218.25 2038.38,8218.26 2038.4,8218.26L2038.37,8218.19L2038.33,8218.24Z" style="fill:none;"/>
        </g>
    </g>
</svg>
