%TF.GenerationSoftware,KiCad,Pcbnew,(6.0.10)*%
%TF.CreationDate,2023-11-18T20:59:03+01:00*%
%TF.ProjectId,Lynx,4c796e78-2e6b-4696-9361-645f70636258,V 1.3*%
%TF.SameCoordinates,Original*%
%TF.FileFunction,Soldermask,Bot*%
%TF.FilePolarity,Negative*%
%FSLAX46Y46*%
G04 Gerber Fmt 4.6, Leading zero omitted, Abs format (unit mm)*
G04 Created by KiCad (PCBNEW (6.0.10)) date 2023-11-18 20:59:03*
%MOMM*%
%LPD*%
G01*
G04 APERTURE LIST*
G04 Aperture macros list*
%AMRoundRect*
0 Rectangle with rounded corners*
0 $1 Rounding radius*
0 $2 $3 $4 $5 $6 $7 $8 $9 X,Y pos of 4 corners*
0 Add a 4 corners polygon primitive as box body*
4,1,4,$2,$3,$4,$5,$6,$7,$8,$9,$2,$3,0*
0 Add four circle primitives for the rounded corners*
1,1,$1+$1,$2,$3*
1,1,$1+$1,$4,$5*
1,1,$1+$1,$6,$7*
1,1,$1+$1,$8,$9*
0 Add four rect primitives between the rounded corners*
20,1,$1+$1,$2,$3,$4,$5,0*
20,1,$1+$1,$4,$5,$6,$7,0*
20,1,$1+$1,$6,$7,$8,$9,0*
20,1,$1+$1,$8,$9,$2,$3,0*%
G04 Aperture macros list end*
%ADD10C,0.100000*%
%ADD11C,0.200000*%
%ADD12C,0.300000*%
%ADD13R,1.200000X2.700000*%
%ADD14RoundRect,0.250001X0.462499X1.074999X-0.462499X1.074999X-0.462499X-1.074999X0.462499X-1.074999X0*%
%ADD15RoundRect,0.250001X-0.462499X-1.074999X0.462499X-1.074999X0.462499X1.074999X-0.462499X1.074999X0*%
%ADD16R,2.600000X3.600000*%
%ADD17RoundRect,0.250000X-1.075000X0.400000X-1.075000X-0.400000X1.075000X-0.400000X1.075000X0.400000X0*%
G04 APERTURE END LIST*
D10*
G36*
X63800000Y-84200000D02*
G01*
X62000000Y-84200000D01*
X62000000Y-81800000D01*
X63800000Y-81800000D01*
X63800000Y-84200000D01*
G37*
X63800000Y-84200000D02*
X62000000Y-84200000D01*
X62000000Y-81800000D01*
X63800000Y-81800000D01*
X63800000Y-84200000D01*
G36*
X97400000Y-84200000D02*
G01*
X95600000Y-84200000D01*
X95600000Y-81800000D01*
X97400000Y-81800000D01*
X97400000Y-84200000D01*
G37*
X97400000Y-84200000D02*
X95600000Y-84200000D01*
X95600000Y-81800000D01*
X97400000Y-81800000D01*
X97400000Y-84200000D01*
D11*
G36*
X97400000Y-86600000D02*
G01*
X95600000Y-85917241D01*
X97400000Y-85200000D01*
X97400000Y-86600000D01*
G37*
X97400000Y-86600000D02*
X95600000Y-85917241D01*
X97400000Y-85200000D01*
X97400000Y-86600000D01*
G36*
X63800000Y-85882759D02*
G01*
X62000000Y-86600000D01*
X62000000Y-85200000D01*
X63800000Y-85882759D01*
G37*
X63800000Y-85882759D02*
X62000000Y-86600000D01*
X62000000Y-85200000D01*
X63800000Y-85882759D01*
D12*
X87221428Y-101778571D02*
X86935714Y-101778571D01*
X86792857Y-101850000D01*
X86650000Y-101992857D01*
X86578571Y-102278571D01*
X86578571Y-102778571D01*
X86650000Y-103064285D01*
X86792857Y-103207142D01*
X86935714Y-103278571D01*
X87221428Y-103278571D01*
X87364285Y-103207142D01*
X87507142Y-103064285D01*
X87578571Y-102778571D01*
X87578571Y-102278571D01*
X87507142Y-101992857D01*
X87364285Y-101850000D01*
X87221428Y-101778571D01*
X85935714Y-102278571D02*
X85935714Y-103278571D01*
X85935714Y-102421428D02*
X85864285Y-102350000D01*
X85721428Y-102278571D01*
X85507142Y-102278571D01*
X85364285Y-102350000D01*
X85292857Y-102492857D01*
X85292857Y-103278571D01*
X74000000Y-101778571D02*
X73714285Y-101778571D01*
X73571428Y-101850000D01*
X73428571Y-101992857D01*
X73357142Y-102278571D01*
X73357142Y-102778571D01*
X73428571Y-103064285D01*
X73571428Y-103207142D01*
X73714285Y-103278571D01*
X74000000Y-103278571D01*
X74142857Y-103207142D01*
X74285714Y-103064285D01*
X74357142Y-102778571D01*
X74357142Y-102278571D01*
X74285714Y-101992857D01*
X74142857Y-101850000D01*
X74000000Y-101778571D01*
X72928571Y-102278571D02*
X72357142Y-102278571D01*
X72714285Y-103278571D02*
X72714285Y-101992857D01*
X72642857Y-101850000D01*
X72500000Y-101778571D01*
X72357142Y-101778571D01*
X72071428Y-102278571D02*
X71500000Y-102278571D01*
X71857142Y-103278571D02*
X71857142Y-101992857D01*
X71785714Y-101850000D01*
X71642857Y-101778571D01*
X71500000Y-101778571D01*
X81857142Y-113794761D02*
X82809523Y-113794761D01*
X82809523Y-111794761D01*
X81380952Y-112461428D02*
X80904761Y-113794761D01*
X80428571Y-112461428D02*
X80904761Y-113794761D01*
X81095238Y-114270952D01*
X81190476Y-114366190D01*
X81380952Y-114461428D01*
X79666666Y-112461428D02*
X79666666Y-113794761D01*
X79666666Y-112651904D02*
X79571428Y-112556666D01*
X79380952Y-112461428D01*
X79095238Y-112461428D01*
X78904761Y-112556666D01*
X78809523Y-112747142D01*
X78809523Y-113794761D01*
X78047619Y-113794761D02*
X77000000Y-112461428D01*
X78047619Y-112461428D02*
X77000000Y-113794761D01*
X83809523Y-115014761D02*
X83142857Y-117014761D01*
X82476190Y-115014761D01*
X79238095Y-117014761D02*
X80380952Y-117014761D01*
X79809523Y-117014761D02*
X79809523Y-115014761D01*
X80000000Y-115300476D01*
X80190476Y-115490952D01*
X80380952Y-115586190D01*
X78380952Y-116824285D02*
X78285714Y-116919523D01*
X78380952Y-117014761D01*
X78476190Y-116919523D01*
X78380952Y-116824285D01*
X78380952Y-117014761D01*
X77619047Y-115014761D02*
X76380952Y-115014761D01*
X77047619Y-115776666D01*
X76761904Y-115776666D01*
X76571428Y-115871904D01*
X76476190Y-115967142D01*
X76380952Y-116157619D01*
X76380952Y-116633809D01*
X76476190Y-116824285D01*
X76571428Y-116919523D01*
X76761904Y-117014761D01*
X77333333Y-117014761D01*
X77523809Y-116919523D01*
X77619047Y-116824285D01*
D13*
%TO.C,SW1*%
X82500000Y-99000000D03*
X80000000Y-99000000D03*
X77500000Y-99000000D03*
X82500000Y-105900000D03*
X80000000Y-105900000D03*
X77500000Y-105900000D03*
%TD*%
D14*
%TO.C,D1*%
X64487500Y-83000000D03*
X61512500Y-83000000D03*
%TD*%
D15*
%TO.C,D2*%
X95000000Y-83000000D03*
X97975000Y-83000000D03*
%TD*%
D16*
%TO.C,BT1*%
X65200000Y-68000000D03*
X94500000Y-68000000D03*
%TD*%
D17*
%TO.C,R1*%
X58000000Y-73600000D03*
X58000000Y-76700000D03*
%TD*%
%TO.C,R2*%
X101500000Y-73500000D03*
X101500000Y-76600000D03*
%TD*%
M02*
