%TF.GenerationSoftware,KiCad,Pcbnew,(6.0.10)*%
%TF.CreationDate,2023-11-18T20:59:03+01:00*%
%TF.ProjectId,Lynx,4c796e78-2e6b-4696-9361-645f70636258,V 1.3*%
%TF.SameCoordinates,Original*%
%TF.FileFunction,Legend,Bot*%
%TF.FilePolarity,Positive*%
%FSLAX46Y46*%
G04 Gerber Fmt 4.6, Leading zero omitted, Abs format (unit mm)*
G04 Created by KiCad (PCBNEW (6.0.10)) date 2023-11-18 20:59:03*
%MOMM*%
%LPD*%
G01*
G04 APERTURE LIST*
G04 Aperture macros list*
%AMRoundRect*
0 Rectangle with rounded corners*
0 $1 Rounding radius*
0 $2 $3 $4 $5 $6 $7 $8 $9 X,Y pos of 4 corners*
0 Add a 4 corners polygon primitive as box body*
4,1,4,$2,$3,$4,$5,$6,$7,$8,$9,$2,$3,0*
0 Add four circle primitives for the rounded corners*
1,1,$1+$1,$2,$3*
1,1,$1+$1,$4,$5*
1,1,$1+$1,$6,$7*
1,1,$1+$1,$8,$9*
0 Add four rect primitives between the rounded corners*
20,1,$1+$1,$2,$3,$4,$5,0*
20,1,$1+$1,$4,$5,$6,$7,0*
20,1,$1+$1,$6,$7,$8,$9,0*
20,1,$1+$1,$8,$9,$2,$3,0*%
G04 Aperture macros list end*
%ADD10C,0.150000*%
%ADD11C,0.120000*%
%ADD12C,0.100000*%
%ADD13C,0.200000*%
%ADD14C,0.300000*%
%ADD15R,1.200000X2.700000*%
%ADD16RoundRect,0.250001X0.462499X1.074999X-0.462499X1.074999X-0.462499X-1.074999X0.462499X-1.074999X0*%
%ADD17RoundRect,0.250001X-0.462499X-1.074999X0.462499X-1.074999X0.462499X1.074999X-0.462499X1.074999X0*%
%ADD18R,2.600000X3.600000*%
%ADD19RoundRect,0.250000X-1.075000X0.400000X-1.075000X-0.400000X1.075000X-0.400000X1.075000X0.400000X0*%
G04 APERTURE END LIST*
D10*
%TO.C,SW1*%
X81333333Y-95234761D02*
X81190476Y-95282380D01*
X80952380Y-95282380D01*
X80857142Y-95234761D01*
X80809523Y-95187142D01*
X80761904Y-95091904D01*
X80761904Y-94996666D01*
X80809523Y-94901428D01*
X80857142Y-94853809D01*
X80952380Y-94806190D01*
X81142857Y-94758571D01*
X81238095Y-94710952D01*
X81285714Y-94663333D01*
X81333333Y-94568095D01*
X81333333Y-94472857D01*
X81285714Y-94377619D01*
X81238095Y-94330000D01*
X81142857Y-94282380D01*
X80904761Y-94282380D01*
X80761904Y-94330000D01*
X80428571Y-94282380D02*
X80190476Y-95282380D01*
X80000000Y-94568095D01*
X79809523Y-95282380D01*
X79571428Y-94282380D01*
X78666666Y-95282380D02*
X79238095Y-95282380D01*
X78952380Y-95282380D02*
X78952380Y-94282380D01*
X79047619Y-94425238D01*
X79142857Y-94520476D01*
X79238095Y-94568095D01*
%TO.C,D1*%
X63738095Y-81172380D02*
X63738095Y-80172380D01*
X63500000Y-80172380D01*
X63357142Y-80220000D01*
X63261904Y-80315238D01*
X63214285Y-80410476D01*
X63166666Y-80600952D01*
X63166666Y-80743809D01*
X63214285Y-80934285D01*
X63261904Y-81029523D01*
X63357142Y-81124761D01*
X63500000Y-81172380D01*
X63738095Y-81172380D01*
X62214285Y-81172380D02*
X62785714Y-81172380D01*
X62500000Y-81172380D02*
X62500000Y-80172380D01*
X62595238Y-80315238D01*
X62690476Y-80410476D01*
X62785714Y-80458095D01*
%TO.C,D2*%
X97225595Y-81052380D02*
X97225595Y-80052380D01*
X96987500Y-80052380D01*
X96844642Y-80100000D01*
X96749404Y-80195238D01*
X96701785Y-80290476D01*
X96654166Y-80480952D01*
X96654166Y-80623809D01*
X96701785Y-80814285D01*
X96749404Y-80909523D01*
X96844642Y-81004761D01*
X96987500Y-81052380D01*
X97225595Y-81052380D01*
X96273214Y-80147619D02*
X96225595Y-80100000D01*
X96130357Y-80052380D01*
X95892261Y-80052380D01*
X95797023Y-80100000D01*
X95749404Y-80147619D01*
X95701785Y-80242857D01*
X95701785Y-80338095D01*
X95749404Y-80480952D01*
X96320833Y-81052380D01*
X95701785Y-81052380D01*
%TO.C,BT1*%
X66510714Y-73228571D02*
X66367857Y-73276190D01*
X66320238Y-73323809D01*
X66272619Y-73419047D01*
X66272619Y-73561904D01*
X66320238Y-73657142D01*
X66367857Y-73704761D01*
X66463095Y-73752380D01*
X66844047Y-73752380D01*
X66844047Y-72752380D01*
X66510714Y-72752380D01*
X66415476Y-72800000D01*
X66367857Y-72847619D01*
X66320238Y-72942857D01*
X66320238Y-73038095D01*
X66367857Y-73133333D01*
X66415476Y-73180952D01*
X66510714Y-73228571D01*
X66844047Y-73228571D01*
X65986904Y-72752380D02*
X65415476Y-72752380D01*
X65701190Y-73752380D02*
X65701190Y-72752380D01*
X64558333Y-73752380D02*
X65129761Y-73752380D01*
X64844047Y-73752380D02*
X64844047Y-72752380D01*
X64939285Y-72895238D01*
X65034523Y-72990476D01*
X65129761Y-73038095D01*
%TO.C,R1*%
X56172380Y-74983333D02*
X55696190Y-74650000D01*
X56172380Y-74411904D02*
X55172380Y-74411904D01*
X55172380Y-74792857D01*
X55220000Y-74888095D01*
X55267619Y-74935714D01*
X55362857Y-74983333D01*
X55505714Y-74983333D01*
X55600952Y-74935714D01*
X55648571Y-74888095D01*
X55696190Y-74792857D01*
X55696190Y-74411904D01*
X56172380Y-75935714D02*
X56172380Y-75364285D01*
X56172380Y-75650000D02*
X55172380Y-75650000D01*
X55315238Y-75554761D01*
X55410476Y-75459523D01*
X55458095Y-75364285D01*
%TO.C,R2*%
X99672380Y-74883333D02*
X99196190Y-74550000D01*
X99672380Y-74311904D02*
X98672380Y-74311904D01*
X98672380Y-74692857D01*
X98720000Y-74788095D01*
X98767619Y-74835714D01*
X98862857Y-74883333D01*
X99005714Y-74883333D01*
X99100952Y-74835714D01*
X99148571Y-74788095D01*
X99196190Y-74692857D01*
X99196190Y-74311904D01*
X98767619Y-75264285D02*
X98720000Y-75311904D01*
X98672380Y-75407142D01*
X98672380Y-75645238D01*
X98720000Y-75740476D01*
X98767619Y-75788095D01*
X98862857Y-75835714D01*
X98958095Y-75835714D01*
X99100952Y-75788095D01*
X99672380Y-75216666D01*
X99672380Y-75835714D01*
D11*
%TO.C,SW1*%
X84600000Y-100700000D02*
X75400000Y-100700000D01*
X75400000Y-100700000D02*
X75400000Y-104200000D01*
X75400000Y-104200000D02*
X84600000Y-104200000D01*
X84600000Y-104200000D02*
X84600000Y-100700000D01*
%TO.C,D1*%
X61400000Y-81415000D02*
X65460000Y-81415000D01*
X65460000Y-84585000D02*
X61400000Y-84585000D01*
X65460000Y-81415000D02*
X65460000Y-84585000D01*
%TO.C,D2*%
X98087500Y-84585000D02*
X94027500Y-84585000D01*
X94027500Y-81415000D02*
X98087500Y-81415000D01*
X94027500Y-84585000D02*
X94027500Y-81415000D01*
%TO.C,BT1*%
X68500000Y-64150000D02*
X65300000Y-64150000D01*
X67850000Y-62000000D02*
X65850000Y-62000000D01*
X91200000Y-64150000D02*
X94400000Y-64150000D01*
X68500000Y-76350000D02*
X91200000Y-76350000D01*
X65300000Y-64150000D02*
X65300000Y-65700000D01*
X94400000Y-71850000D02*
X94400000Y-70300000D01*
X91200000Y-59650000D02*
X91200000Y-64150000D01*
X70300000Y-59650000D02*
X68500000Y-61450000D01*
X65300000Y-71850000D02*
X65300000Y-70300000D01*
X91200000Y-76350000D02*
X91200000Y-71850000D01*
X91200000Y-59650000D02*
X70300000Y-59650000D01*
X66850000Y-63000000D02*
X66850000Y-61000000D01*
X91200000Y-71850000D02*
X94400000Y-71850000D01*
X68500000Y-76350000D02*
X68500000Y-71850000D01*
X68500000Y-71850000D02*
X65300000Y-71850000D01*
X94400000Y-64150000D02*
X94400000Y-65700000D01*
X68500000Y-61450000D02*
X68500000Y-64150000D01*
%TO.C,R1*%
X56645000Y-74426263D02*
X56645000Y-75873737D01*
X59355000Y-74426263D02*
X59355000Y-75873737D01*
%TO.C,R2*%
X102855000Y-74326263D02*
X102855000Y-75773737D01*
X100145000Y-74326263D02*
X100145000Y-75773737D01*
%TD*%
%LPC*%
D12*
G36*
X63800000Y-84200000D02*
G01*
X62000000Y-84200000D01*
X62000000Y-81800000D01*
X63800000Y-81800000D01*
X63800000Y-84200000D01*
G37*
X63800000Y-84200000D02*
X62000000Y-84200000D01*
X62000000Y-81800000D01*
X63800000Y-81800000D01*
X63800000Y-84200000D01*
G36*
X97400000Y-84200000D02*
G01*
X95600000Y-84200000D01*
X95600000Y-81800000D01*
X97400000Y-81800000D01*
X97400000Y-84200000D01*
G37*
X97400000Y-84200000D02*
X95600000Y-84200000D01*
X95600000Y-81800000D01*
X97400000Y-81800000D01*
X97400000Y-84200000D01*
D13*
G36*
X97400000Y-86600000D02*
G01*
X95600000Y-85917241D01*
X97400000Y-85200000D01*
X97400000Y-86600000D01*
G37*
X97400000Y-86600000D02*
X95600000Y-85917241D01*
X97400000Y-85200000D01*
X97400000Y-86600000D01*
G36*
X63800000Y-85882759D02*
G01*
X62000000Y-86600000D01*
X62000000Y-85200000D01*
X63800000Y-85882759D01*
G37*
X63800000Y-85882759D02*
X62000000Y-86600000D01*
X62000000Y-85200000D01*
X63800000Y-85882759D01*
D14*
X87221428Y-101778571D02*
X86935714Y-101778571D01*
X86792857Y-101850000D01*
X86650000Y-101992857D01*
X86578571Y-102278571D01*
X86578571Y-102778571D01*
X86650000Y-103064285D01*
X86792857Y-103207142D01*
X86935714Y-103278571D01*
X87221428Y-103278571D01*
X87364285Y-103207142D01*
X87507142Y-103064285D01*
X87578571Y-102778571D01*
X87578571Y-102278571D01*
X87507142Y-101992857D01*
X87364285Y-101850000D01*
X87221428Y-101778571D01*
X85935714Y-102278571D02*
X85935714Y-103278571D01*
X85935714Y-102421428D02*
X85864285Y-102350000D01*
X85721428Y-102278571D01*
X85507142Y-102278571D01*
X85364285Y-102350000D01*
X85292857Y-102492857D01*
X85292857Y-103278571D01*
X74000000Y-101778571D02*
X73714285Y-101778571D01*
X73571428Y-101850000D01*
X73428571Y-101992857D01*
X73357142Y-102278571D01*
X73357142Y-102778571D01*
X73428571Y-103064285D01*
X73571428Y-103207142D01*
X73714285Y-103278571D01*
X74000000Y-103278571D01*
X74142857Y-103207142D01*
X74285714Y-103064285D01*
X74357142Y-102778571D01*
X74357142Y-102278571D01*
X74285714Y-101992857D01*
X74142857Y-101850000D01*
X74000000Y-101778571D01*
X72928571Y-102278571D02*
X72357142Y-102278571D01*
X72714285Y-103278571D02*
X72714285Y-101992857D01*
X72642857Y-101850000D01*
X72500000Y-101778571D01*
X72357142Y-101778571D01*
X72071428Y-102278571D02*
X71500000Y-102278571D01*
X71857142Y-103278571D02*
X71857142Y-101992857D01*
X71785714Y-101850000D01*
X71642857Y-101778571D01*
X71500000Y-101778571D01*
X81857142Y-113794761D02*
X82809523Y-113794761D01*
X82809523Y-111794761D01*
X81380952Y-112461428D02*
X80904761Y-113794761D01*
X80428571Y-112461428D02*
X80904761Y-113794761D01*
X81095238Y-114270952D01*
X81190476Y-114366190D01*
X81380952Y-114461428D01*
X79666666Y-112461428D02*
X79666666Y-113794761D01*
X79666666Y-112651904D02*
X79571428Y-112556666D01*
X79380952Y-112461428D01*
X79095238Y-112461428D01*
X78904761Y-112556666D01*
X78809523Y-112747142D01*
X78809523Y-113794761D01*
X78047619Y-113794761D02*
X77000000Y-112461428D01*
X78047619Y-112461428D02*
X77000000Y-113794761D01*
X83809523Y-115014761D02*
X83142857Y-117014761D01*
X82476190Y-115014761D01*
X79238095Y-117014761D02*
X80380952Y-117014761D01*
X79809523Y-117014761D02*
X79809523Y-115014761D01*
X80000000Y-115300476D01*
X80190476Y-115490952D01*
X80380952Y-115586190D01*
X78380952Y-116824285D02*
X78285714Y-116919523D01*
X78380952Y-117014761D01*
X78476190Y-116919523D01*
X78380952Y-116824285D01*
X78380952Y-117014761D01*
X77619047Y-115014761D02*
X76380952Y-115014761D01*
X77047619Y-115776666D01*
X76761904Y-115776666D01*
X76571428Y-115871904D01*
X76476190Y-115967142D01*
X76380952Y-116157619D01*
X76380952Y-116633809D01*
X76476190Y-116824285D01*
X76571428Y-116919523D01*
X76761904Y-117014761D01*
X77333333Y-117014761D01*
X77523809Y-116919523D01*
X77619047Y-116824285D01*
D15*
%TO.C,SW1*%
X82500000Y-99000000D03*
X80000000Y-99000000D03*
X77500000Y-99000000D03*
X82500000Y-105900000D03*
X80000000Y-105900000D03*
X77500000Y-105900000D03*
%TD*%
D16*
%TO.C,D1*%
X64487500Y-83000000D03*
X61512500Y-83000000D03*
%TD*%
D17*
%TO.C,D2*%
X95000000Y-83000000D03*
X97975000Y-83000000D03*
%TD*%
D18*
%TO.C,BT1*%
X65200000Y-68000000D03*
X94500000Y-68000000D03*
%TD*%
D19*
%TO.C,R1*%
X58000000Y-73600000D03*
X58000000Y-76700000D03*
%TD*%
%TO.C,R2*%
X101500000Y-73500000D03*
X101500000Y-76600000D03*
%TD*%
M02*
