%TF.GenerationSoftware,KiCad,Pcbnew,(6.0.10)*%
%TF.CreationDate,2023-11-18T20:59:03+01:00*%
%TF.ProjectId,Lynx,4c796e78-2e6b-4696-9361-645f70636258,V 1.3*%
%TF.SameCoordinates,Original*%
%TF.FileFunction,Profile,NP*%
%FSLAX46Y46*%
G04 Gerber Fmt 4.6, Leading zero omitted, Abs format (unit mm)*
G04 Created by KiCad (PCBNEW (6.0.10)) date 2023-11-18 20:59:03*
%MOMM*%
%LPD*%
G01*
G04 APERTURE LIST*
%TA.AperFunction,Profile*%
%ADD10C,1.000000*%
%TD*%
G04 APERTURE END LIST*
D10*
X51093000Y-31193000D02*
X51131000Y-31212000D01*
X51158000Y-31245000D01*
X51168000Y-31283000D01*
X51168000Y-31287000D01*
X51170000Y-31302000D01*
X51182000Y-31362000D01*
X51194000Y-31408000D01*
X51211000Y-31466000D01*
X51233000Y-31535000D01*
X51262000Y-31616000D01*
X51299000Y-31710000D01*
X51343000Y-31816000D01*
X51397000Y-31936000D01*
X51460000Y-32070000D01*
X51534000Y-32217000D01*
X51619000Y-32378000D01*
X51716000Y-32552000D01*
X51794000Y-32688000D01*
X51879000Y-32831000D01*
X51972000Y-32982000D01*
X52072000Y-33142000D01*
X52180000Y-33309000D01*
X52296000Y-33485000D01*
X52420000Y-33669000D01*
X52553000Y-33861000D01*
X52696000Y-34062000D01*
X52847000Y-34272000D01*
X53009000Y-34490000D01*
X53180000Y-34718000D01*
X53361000Y-34954000D01*
X53553000Y-35200000D01*
X53756000Y-35455000D01*
X53970000Y-35720000D01*
X54195000Y-35995000D01*
X54432000Y-36279000D01*
X54681000Y-36573000D01*
X54942000Y-36877000D01*
X55216000Y-37191000D01*
X55502000Y-37516000D01*
X55802000Y-37851000D01*
X56116000Y-38196000D01*
X56443000Y-38553000D01*
X56784000Y-38920000D01*
X57139000Y-39298000D01*
X57510000Y-39687000D01*
X57895000Y-40087000D01*
X58295000Y-40499000D01*
X58711000Y-40922000D01*
X59143000Y-41356000D01*
X59215000Y-41429000D01*
X60828000Y-43042000D01*
X61198000Y-43413000D01*
X61555000Y-43770000D01*
X61899000Y-44115000D01*
X62232000Y-44448000D01*
X62552000Y-44769000D01*
X62860000Y-45079000D01*
X63157000Y-45377000D01*
X63443000Y-45664000D01*
X63718000Y-45941000D01*
X63982000Y-46207000D01*
X64236000Y-46463000D01*
X64480000Y-46709000D01*
X64715000Y-46945000D01*
X64939000Y-47172000D01*
X65155000Y-47390000D01*
X65361000Y-47599000D01*
X65559000Y-47799000D01*
X65748000Y-47991000D01*
X65929000Y-48175000D01*
X66103000Y-48352000D01*
X66268000Y-48521000D01*
X66427000Y-48683000D01*
X66578000Y-48838000D01*
X66723000Y-48987000D01*
X66861000Y-49129000D01*
X66993000Y-49266000D01*
X67118000Y-49396000D01*
X67239000Y-49521000D01*
X67354000Y-49641000D01*
X67463000Y-49756000D01*
X67568000Y-49867000D01*
X67668000Y-49973000D01*
X67764000Y-50075000D01*
X67856000Y-50173000D01*
X67945000Y-50268000D01*
X68030000Y-50359000D01*
X68111000Y-50448000D01*
X68190000Y-50534000D01*
X68266000Y-50617000D01*
X68339000Y-50699000D01*
X68411000Y-50778000D01*
X68481000Y-50856000D01*
X68549000Y-50933000D01*
X68616000Y-51009000D01*
X68682000Y-51084000D01*
X68747000Y-51158000D01*
X68811000Y-51232000D01*
X69006000Y-51457000D01*
X69071000Y-51534000D01*
X69085000Y-51550000D01*
X69279000Y-51788000D01*
X69457000Y-52027000D01*
X69620000Y-52267000D01*
X69768000Y-52506000D01*
X69901000Y-52741000D01*
X70022000Y-52973000D01*
X70130000Y-53198000D01*
X70226000Y-53416000D01*
X70311000Y-53625000D01*
X70386000Y-53824000D01*
X70452000Y-54010000D01*
X70509000Y-54183000D01*
X70558000Y-54341000D01*
X70600000Y-54482000D01*
X70622000Y-54558000D01*
X70660000Y-54436000D01*
X70704000Y-54297000D01*
X70756000Y-54140000D01*
X70814000Y-53966000D01*
X70880000Y-53778000D01*
X70953000Y-53575000D01*
X71033000Y-53358000D01*
X71095000Y-53195000D01*
X71179000Y-52956000D01*
X71252000Y-52701000D01*
X71315000Y-52429000D01*
X71368000Y-52140000D01*
X71411000Y-51834000D01*
X71445000Y-51512000D01*
X71470000Y-51171000D01*
X71486000Y-50813000D01*
X71493000Y-50438000D01*
X71491000Y-50044000D01*
X71481000Y-49633000D01*
X71463000Y-49203000D01*
X71460000Y-49141000D01*
X71463000Y-49093000D01*
X71475000Y-49059000D01*
X71491000Y-49035000D01*
X71505000Y-49022000D01*
X71510000Y-49019000D01*
X71551000Y-49004000D01*
X71576000Y-49005000D01*
X71601000Y-49011000D01*
X71630000Y-49029000D01*
X71642000Y-49041000D01*
X71760000Y-49067000D01*
X71880000Y-49112000D01*
X72000000Y-49174000D01*
X72120000Y-49252000D01*
X72241000Y-49347000D01*
X72301000Y-49398000D01*
X72447000Y-49539000D01*
X72594000Y-49696000D01*
X72741000Y-49867000D01*
X72888000Y-50050000D01*
X73036000Y-50241000D01*
X73183000Y-50438000D01*
X73317000Y-50620000D01*
X73460000Y-50814000D01*
X73603000Y-51005000D01*
X73744000Y-51190000D01*
X73885000Y-51366000D01*
X74026000Y-51531000D01*
X74165000Y-51681000D01*
X74291000Y-51803000D01*
X74390000Y-51888000D01*
X74488000Y-51962000D01*
X74585000Y-52021000D01*
X74681000Y-52065000D01*
X74776000Y-52092000D01*
X74854000Y-52101000D01*
X75002000Y-52095000D01*
X75153000Y-52070000D01*
X75306000Y-52029000D01*
X75459000Y-51972000D01*
X75614000Y-51900000D01*
X75768000Y-51816000D01*
X75923000Y-51721000D01*
X76077000Y-51615000D01*
X76185000Y-51536000D01*
X76382000Y-51379000D01*
X76576000Y-51211000D01*
X76765000Y-51036000D01*
X76949000Y-50856000D01*
X77125000Y-50673000D01*
X77295000Y-50491000D01*
X77455000Y-50312000D01*
X77606000Y-50139000D01*
X77746000Y-49974000D01*
X77874000Y-49821000D01*
X77918000Y-49768000D01*
X78072000Y-49593000D01*
X78226000Y-49437000D01*
X78381000Y-49301000D01*
X78535000Y-49185000D01*
X78690000Y-49088000D01*
X78845000Y-49010000D01*
X79000000Y-48952000D01*
X79154000Y-48912000D01*
X79308000Y-48891000D01*
X79411000Y-48887000D01*
X79569000Y-48898000D01*
X79726000Y-48928000D01*
X79884000Y-48978000D01*
X80041000Y-49047000D01*
X80197000Y-49137000D01*
X80354000Y-49246000D01*
X80509000Y-49374000D01*
X80664000Y-49523000D01*
X80818000Y-49692000D01*
X80883000Y-49769000D01*
X80995000Y-49904000D01*
X81120000Y-50050000D01*
X81257000Y-50206000D01*
X81405000Y-50369000D01*
X81563000Y-50537000D01*
X81728000Y-50707000D01*
X81901000Y-50878000D01*
X82080000Y-51046000D01*
X82263000Y-51210000D01*
X82450000Y-51367000D01*
X82639000Y-51516000D01*
X82654000Y-51527000D01*
X82806000Y-51637000D01*
X82958000Y-51739000D01*
X83109000Y-51832000D01*
X83259000Y-51912000D01*
X83406000Y-51981000D01*
X83551000Y-52035000D01*
X83692000Y-52074000D01*
X83830000Y-52096000D01*
X83947000Y-52101000D01*
X84052000Y-52089000D01*
X84156000Y-52058000D01*
X84259000Y-52011000D01*
X84362000Y-51948000D01*
X84464000Y-51872000D01*
X84549000Y-51800000D01*
X84689000Y-51665000D01*
X84827000Y-51512000D01*
X84965000Y-51346000D01*
X85103000Y-51168000D01*
X85240000Y-50981000D01*
X85377000Y-50790000D01*
X85503000Y-50611000D01*
X85643000Y-50413000D01*
X85783000Y-50218000D01*
X85923000Y-50029000D01*
X86064000Y-49848000D01*
X86205000Y-49679000D01*
X86346000Y-49524000D01*
X86487000Y-49388000D01*
X86606000Y-49288000D01*
X86726000Y-49204000D01*
X86846000Y-49135000D01*
X86968000Y-49083000D01*
X87089000Y-49050000D01*
X87159000Y-49039000D01*
X87160000Y-49039000D01*
X87189000Y-49016000D01*
X87216000Y-49006000D01*
X87224000Y-49005000D01*
X87257000Y-49005000D01*
X87289000Y-49016000D01*
X87317000Y-49043000D01*
X87324000Y-49052000D01*
X87331000Y-49068000D01*
X87338000Y-49099000D01*
X87340000Y-49141000D01*
X87321000Y-49573000D01*
X87310000Y-49987000D01*
X87307000Y-50383000D01*
X87313000Y-50761000D01*
X87327000Y-51122000D01*
X87351000Y-51465000D01*
X87383000Y-51790000D01*
X87425000Y-52098000D01*
X87477000Y-52389000D01*
X87538000Y-52664000D01*
X87610000Y-52921000D01*
X87692000Y-53162000D01*
X87705000Y-53195000D01*
X87790000Y-53421000D01*
X87868000Y-53634000D01*
X87939000Y-53833000D01*
X88003000Y-54017000D01*
X88059000Y-54186000D01*
X88109000Y-54338000D01*
X88152000Y-54473000D01*
X88179000Y-54558000D01*
X88216000Y-54428000D01*
X88261000Y-54280000D01*
X88313000Y-54116000D01*
X88373000Y-53937000D01*
X88443000Y-53746000D01*
X88522000Y-53543000D01*
X88611000Y-53330000D01*
X88712000Y-53109000D01*
X88825000Y-52881000D01*
X88951000Y-52648000D01*
X89090000Y-52411000D01*
X89243000Y-52171000D01*
X89412000Y-51931000D01*
X89596000Y-51692000D01*
X89715000Y-51550000D01*
X89781000Y-51473000D01*
X89846000Y-51397000D01*
X89911000Y-51322000D01*
X89975000Y-51248000D01*
X90040000Y-51173000D01*
X90105000Y-51099000D01*
X90237000Y-50949000D01*
X90305000Y-50872000D01*
X90375000Y-50794000D01*
X90446000Y-50715000D01*
X90519000Y-50634000D01*
X90594000Y-50551000D01*
X90673000Y-50466000D01*
X90753000Y-50378000D01*
X90838000Y-50287000D01*
X90925000Y-50193000D01*
X91016000Y-50095000D01*
X91111000Y-49994000D01*
X91211000Y-49889000D01*
X91315000Y-49780000D01*
X91423000Y-49665000D01*
X91537000Y-49547000D01*
X91656000Y-49423000D01*
X91781000Y-49293000D01*
X91912000Y-49158000D01*
X92049000Y-49017000D01*
X92192000Y-48870000D01*
X92342000Y-48716000D01*
X92499000Y-48555000D01*
X92663000Y-48387000D01*
X92834000Y-48212000D01*
X93014000Y-48030000D01*
X93202000Y-47839000D01*
X93398000Y-47640000D01*
X93602000Y-47433000D01*
X93816000Y-47217000D01*
X94038000Y-46992000D01*
X94271000Y-46758000D01*
X94513000Y-46514000D01*
X94764000Y-46260000D01*
X95027000Y-45997000D01*
X95299000Y-45722000D01*
X95583000Y-45437000D01*
X95878000Y-45141000D01*
X96184000Y-44834000D01*
X96502000Y-44515000D01*
X96831000Y-44185000D01*
X97173000Y-43842000D01*
X97895000Y-43120000D01*
X98275000Y-42739000D01*
X98668000Y-42345000D01*
X99076000Y-41938000D01*
X99496000Y-41517000D01*
X99585000Y-41429000D01*
X100019000Y-40992000D01*
X100438000Y-40567000D01*
X100841000Y-40154000D01*
X101228000Y-39752000D01*
X101601000Y-39361000D01*
X101959000Y-38981000D01*
X102302000Y-38612000D01*
X102632000Y-38254000D01*
X102947000Y-37907000D01*
X103249000Y-37570000D01*
X103538000Y-37244000D01*
X103814000Y-36928000D01*
X104077000Y-36622000D01*
X104328000Y-36326000D01*
X104567000Y-36040000D01*
X104794000Y-35764000D01*
X105010000Y-35498000D01*
X105215000Y-35241000D01*
X105408000Y-34994000D01*
X105591000Y-34756000D01*
X105764000Y-34527000D01*
X105927000Y-34307000D01*
X106080000Y-34096000D01*
X106224000Y-33893000D01*
X106359000Y-33699000D01*
X106485000Y-33514000D01*
X106602000Y-33337000D01*
X106711000Y-33169000D01*
X106813000Y-33008000D01*
X106906000Y-32855000D01*
X106993000Y-32711000D01*
X107072000Y-32573000D01*
X107084000Y-32552000D01*
X107182000Y-32376000D01*
X107267000Y-32214000D01*
X107341000Y-32067000D01*
X107404000Y-31934000D01*
X107458000Y-31815000D01*
X107502000Y-31708000D01*
X107538000Y-31615000D01*
X107567000Y-31534000D01*
X107589000Y-31465000D01*
X107606000Y-31407000D01*
X107618000Y-31361000D01*
X107625000Y-31326000D01*
X107630000Y-31302000D01*
X107632000Y-31287000D01*
X107632000Y-31283000D01*
X107644000Y-31241000D01*
X107672000Y-31209000D01*
X107707000Y-31193000D01*
X107750000Y-31191000D01*
X107789000Y-31207000D01*
X107816000Y-31234000D01*
X107821000Y-31243000D01*
X107837000Y-31268000D01*
X107863000Y-31309000D01*
X107899000Y-31366000D01*
X107944000Y-31438000D01*
X107998000Y-31527000D01*
X108060000Y-31630000D01*
X108131000Y-31749000D01*
X108209000Y-31882000D01*
X108294000Y-32030000D01*
X108386000Y-32192000D01*
X108484000Y-32368000D01*
X108588000Y-32558000D01*
X108698000Y-32761000D01*
X108813000Y-32978000D01*
X108933000Y-33207000D01*
X109056000Y-33450000D01*
X109184000Y-33705000D01*
X109315000Y-33972000D01*
X109449000Y-34251000D01*
X109585000Y-34542000D01*
X109724000Y-34845000D01*
X109865000Y-35159000D01*
X110006000Y-35484000D01*
X110149000Y-35820000D01*
X110292000Y-36166000D01*
X110435000Y-36523000D01*
X110578000Y-36889000D01*
X110720000Y-37266000D01*
X110861000Y-37652000D01*
X111000000Y-38048000D01*
X111138000Y-38452000D01*
X111272000Y-38866000D01*
X111404000Y-39287000D01*
X111533000Y-39718000D01*
X111658000Y-40156000D01*
X111778000Y-40602000D01*
X111894000Y-41056000D01*
X112006000Y-41517000D01*
X112111000Y-41986000D01*
X112211000Y-42461000D01*
X112305000Y-42943000D01*
X112392000Y-43431000D01*
X112472000Y-43925000D01*
X112545000Y-44425000D01*
X112609000Y-44931000D01*
X112666000Y-45442000D01*
X112713000Y-45958000D01*
X112752000Y-46479000D01*
X112780000Y-47005000D01*
X112791000Y-47267000D01*
X112813000Y-47948000D01*
X112828000Y-48610000D01*
X112839000Y-49253000D01*
X112844000Y-49878000D01*
X112843000Y-50486000D01*
X112837000Y-51076000D01*
X112826000Y-51650000D01*
X112810000Y-52206000D01*
X112789000Y-52747000D01*
X112763000Y-53272000D01*
X112732000Y-53781000D01*
X112696000Y-54275000D01*
X112656000Y-54754000D01*
X112611000Y-55219000D01*
X112562000Y-55669000D01*
X112509000Y-56106000D01*
X112451000Y-56530000D01*
X112389000Y-56941000D01*
X112323000Y-57339000D01*
X112254000Y-57725000D01*
X112180000Y-58099000D01*
X112103000Y-58461000D01*
X112022000Y-58812000D01*
X111937000Y-59153000D01*
X111849000Y-59483000D01*
X111758000Y-59803000D01*
X111664000Y-60113000D01*
X111566000Y-60414000D01*
X111466000Y-60706000D01*
X111362000Y-60990000D01*
X111256000Y-61265000D01*
X111147000Y-61532000D01*
X111035000Y-61792000D01*
X110921000Y-62044000D01*
X110804000Y-62290000D01*
X110685000Y-62530000D01*
X110563000Y-62763000D01*
X110440000Y-62990000D01*
X110340000Y-63169000D01*
X110146000Y-63514000D01*
X109966000Y-63845000D01*
X109800000Y-64165000D01*
X109647000Y-64473000D01*
X109507000Y-64770000D01*
X109380000Y-65059000D01*
X109265000Y-65338000D01*
X109161000Y-65609000D01*
X109069000Y-65874000D01*
X108988000Y-66132000D01*
X108918000Y-66385000D01*
X108858000Y-66634000D01*
X108808000Y-66879000D01*
X108768000Y-67122000D01*
X108737000Y-67363000D01*
X108715000Y-67603000D01*
X108701000Y-67843000D01*
X108696000Y-68084000D01*
X108698000Y-68326000D01*
X108708000Y-68571000D01*
X108725000Y-68820000D01*
X108749000Y-69073000D01*
X108779000Y-69331000D01*
X108815000Y-69595000D01*
X108816000Y-69607000D01*
X108834000Y-69731000D01*
X108854000Y-69868000D01*
X108875000Y-70017000D01*
X108899000Y-70179000D01*
X108926000Y-70352000D01*
X108955000Y-70536000D01*
X108987000Y-70731000D01*
X109023000Y-70937000D01*
X109062000Y-71152000D01*
X109106000Y-71377000D01*
X109153000Y-71611000D01*
X109205000Y-71853000D01*
X109262000Y-72103000D01*
X109324000Y-72362000D01*
X109392000Y-72627000D01*
X109465000Y-72899000D01*
X109543000Y-73178000D01*
X109628000Y-73462000D01*
X109720000Y-73752000D01*
X109818000Y-74047000D01*
X109923000Y-74347000D01*
X110036000Y-74651000D01*
X110156000Y-74958000D01*
X110284000Y-75269000D01*
X110420000Y-75583000D01*
X110564000Y-75899000D01*
X110717000Y-76217000D01*
X110879000Y-76537000D01*
X111051000Y-76857000D01*
X111232000Y-77179000D01*
X111422000Y-77500000D01*
X111623000Y-77822000D01*
X111834000Y-78142000D01*
X112056000Y-78462000D01*
X112289000Y-78780000D01*
X112533000Y-79096000D01*
X112788000Y-79410000D01*
X113055000Y-79721000D01*
X113335000Y-80028000D01*
X113626000Y-80332000D01*
X113930000Y-80632000D01*
X114247000Y-80927000D01*
X114577000Y-81216000D01*
X114921000Y-81501000D01*
X115278000Y-81779000D01*
X115650000Y-82051000D01*
X116035000Y-82317000D01*
X116435000Y-82575000D01*
X116850000Y-82825000D01*
X117280000Y-83067000D01*
X117726000Y-83301000D01*
X118187000Y-83526000D01*
X118664000Y-83741000D01*
X119157000Y-83946000D01*
X119667000Y-84141000D01*
X119733000Y-84165000D01*
X119775000Y-84186000D01*
X119803000Y-84210000D01*
X119818000Y-84232000D01*
X119824000Y-84248000D01*
X119825000Y-84248000D01*
X119827000Y-84291000D01*
X119816000Y-84324000D01*
X119799000Y-84347000D01*
X119770000Y-84369000D01*
X119765000Y-84371000D01*
X119771000Y-84368000D01*
X119746000Y-84377000D01*
X119703000Y-84390000D01*
X119645000Y-84408000D01*
X119573000Y-84429000D01*
X119490000Y-84455000D01*
X119397000Y-84485000D01*
X119297000Y-84519000D01*
X119191000Y-84557000D01*
X119081000Y-84599000D01*
X118971000Y-84645000D01*
X118957000Y-84651000D01*
X118837000Y-84706000D01*
X118721000Y-84767000D01*
X118613000Y-84832000D01*
X118514000Y-84903000D01*
X118428000Y-84980000D01*
X118367000Y-85052000D01*
X118273000Y-85192000D01*
X118197000Y-85331000D01*
X118138000Y-85468000D01*
X118091000Y-85602000D01*
X118057000Y-85730000D01*
X118033000Y-85852000D01*
X118016000Y-85965000D01*
X118004000Y-86068000D01*
X117996000Y-86161000D01*
X117990000Y-86241000D01*
X117985000Y-86290000D01*
X117973000Y-86361000D01*
X117957000Y-86413000D01*
X117949000Y-86428000D01*
X117921000Y-86463000D01*
X118021000Y-86604000D01*
X118118000Y-86743000D01*
X118211000Y-86881000D01*
X118301000Y-87018000D01*
X118388000Y-87157000D01*
X118473000Y-87297000D01*
X118555000Y-87438000D01*
X118635000Y-87583000D01*
X118713000Y-87731000D01*
X118790000Y-87883000D01*
X118865000Y-88039000D01*
X118940000Y-88201000D01*
X119013000Y-88370000D01*
X119087000Y-88545000D01*
X119159000Y-88727000D01*
X119232000Y-88918000D01*
X119306000Y-89118000D01*
X119379000Y-89327000D01*
X119454000Y-89547000D01*
X119529000Y-89778000D01*
X119606000Y-90020000D01*
X119685000Y-90275000D01*
X119765000Y-90543000D01*
X119848000Y-90825000D01*
X119932000Y-91121000D01*
X120020000Y-91433000D01*
X120110000Y-91760000D01*
X120204000Y-92104000D01*
X120301000Y-92465000D01*
X120401000Y-92844000D01*
X120506000Y-93242000D01*
X120534000Y-93349000D01*
X120538000Y-93389000D01*
X120530000Y-93421000D01*
X120514000Y-93443000D01*
X120497000Y-93459000D01*
X120481000Y-93468000D01*
X120475000Y-93471000D01*
X120455000Y-93477000D01*
X120429000Y-93479000D01*
X120398000Y-93471000D01*
X120371000Y-93453000D01*
X120360000Y-93440000D01*
X120340000Y-93411000D01*
X120320000Y-93379000D01*
X120298000Y-93340000D01*
X120268000Y-93291000D01*
X120233000Y-93233000D01*
X120190000Y-93167000D01*
X120142000Y-93094000D01*
X120086000Y-93015000D01*
X120024000Y-92930000D01*
X119955000Y-92841000D01*
X119880000Y-92749000D01*
X119798000Y-92654000D01*
X119709000Y-92557000D01*
X119613000Y-92459000D01*
X119511000Y-92362000D01*
X119401000Y-92266000D01*
X119285000Y-92173000D01*
X119162000Y-92082000D01*
X119031000Y-91995000D01*
X118894000Y-91913000D01*
X118749000Y-91837000D01*
X118598000Y-91767000D01*
X118439000Y-91706000D01*
X118273000Y-91652000D01*
X118100000Y-91609000D01*
X117920000Y-91576000D01*
X117732000Y-91554000D01*
X117537000Y-91544000D01*
X117334000Y-91548000D01*
X117124000Y-91566000D01*
X116907000Y-91599000D01*
X116682000Y-91648000D01*
X116450000Y-91714000D01*
X116289000Y-91769000D01*
X116173000Y-91811000D01*
X116066000Y-91852000D01*
X115967000Y-91892000D01*
X115875000Y-91931000D01*
X115789000Y-91971000D01*
X115708000Y-92011000D01*
X115631000Y-92053000D01*
X115558000Y-92097000D01*
X115487000Y-92143000D01*
X115417000Y-92193000D01*
X115347000Y-92246000D01*
X115276000Y-92304000D01*
X115204000Y-92368000D01*
X115128000Y-92437000D01*
X115050000Y-92512000D01*
X114966000Y-92595000D01*
X114877000Y-92685000D01*
X114781000Y-92783000D01*
X114678000Y-92891000D01*
X114566000Y-93008000D01*
X114444000Y-93135000D01*
X114312000Y-93272000D01*
X114168000Y-93421000D01*
X114012000Y-93583000D01*
X113842000Y-93757000D01*
X113787000Y-93812000D01*
X113668000Y-93936000D01*
X113552000Y-94062000D01*
X113438000Y-94189000D01*
X113326000Y-94318000D01*
X113216000Y-94448000D01*
X113107000Y-94579000D01*
X112997000Y-94711000D01*
X112888000Y-94844000D01*
X112778000Y-94978000D01*
X112666000Y-95112000D01*
X112553000Y-95247000D01*
X112437000Y-95382000D01*
X112319000Y-95516000D01*
X112197000Y-95651000D01*
X112070000Y-95785000D01*
X111940000Y-95919000D01*
X111804000Y-96052000D01*
X111663000Y-96185000D01*
X111515000Y-96316000D01*
X111361000Y-96446000D01*
X111199000Y-96575000D01*
X111030000Y-96702000D01*
X110852000Y-96828000D01*
X110666000Y-96952000D01*
X110470000Y-97074000D01*
X110264000Y-97194000D01*
X110047000Y-97312000D01*
X109820000Y-97427000D01*
X109581000Y-97540000D01*
X109330000Y-97650000D01*
X109066000Y-97757000D01*
X108789000Y-97860000D01*
X108498000Y-97961000D01*
X108193000Y-98058000D01*
X107873000Y-98152000D01*
X107538000Y-98241000D01*
X107187000Y-98327000D01*
X106820000Y-98409000D01*
X106435000Y-98486000D01*
X106033000Y-98560000D01*
X105613000Y-98628000D01*
X105174000Y-98692000D01*
X104980000Y-98718000D01*
X105213000Y-98748000D01*
X105589000Y-98798000D01*
X105961000Y-98852000D01*
X106331000Y-98909000D01*
X106698000Y-98969000D01*
X107064000Y-99034000D01*
X107429000Y-99103000D01*
X107792000Y-99178000D01*
X108154000Y-99258000D01*
X108516000Y-99345000D01*
X108878000Y-99438000D01*
X109240000Y-99539000D01*
X109603000Y-99648000D01*
X109966000Y-99765000D01*
X110331000Y-99892000D01*
X110698000Y-100027000D01*
X111067000Y-100173000D01*
X111438000Y-100329000D01*
X111812000Y-100496000D01*
X112188000Y-100675000D01*
X112569000Y-100866000D01*
X112953000Y-101069000D01*
X113341000Y-101285000D01*
X113733000Y-101515000D01*
X114131000Y-101760000D01*
X114533000Y-102019000D01*
X114941000Y-102293000D01*
X115355000Y-102583000D01*
X115775000Y-102889000D01*
X116202000Y-103212000D01*
X116636000Y-103552000D01*
X117077000Y-103910000D01*
X117181000Y-103996000D01*
X117237000Y-104054000D01*
X117287000Y-104130000D01*
X117332000Y-104224000D01*
X117371000Y-104334000D01*
X117377000Y-104356000D01*
X117408000Y-104494000D01*
X117432000Y-104647000D01*
X117447000Y-104815000D01*
X117454000Y-104994000D01*
X117452000Y-105183000D01*
X117441000Y-105379000D01*
X117420000Y-105581000D01*
X117397000Y-105749000D01*
X117485000Y-105819000D01*
X117637000Y-105949000D01*
X117771000Y-106082000D01*
X117886000Y-106216000D01*
X117985000Y-106352000D01*
X118069000Y-106488000D01*
X118138000Y-106624000D01*
X118193000Y-106759000D01*
X118236000Y-106892000D01*
X118267000Y-107024000D01*
X118288000Y-107153000D01*
X118299000Y-107280000D01*
X118302000Y-107402000D01*
X118298000Y-107520000D01*
X118288000Y-107634000D01*
X118272000Y-107742000D01*
X118253000Y-107844000D01*
X118230000Y-107939000D01*
X118205000Y-108027000D01*
X118179000Y-108107000D01*
X118153000Y-108179000D01*
X118128000Y-108242000D01*
X118105000Y-108296000D01*
X118085000Y-108339000D01*
X118069000Y-108371000D01*
X118059000Y-108392000D01*
X118047000Y-108415000D01*
X118027000Y-108449000D01*
X118002000Y-108491000D01*
X117969000Y-108542000D01*
X117930000Y-108599000D01*
X117884000Y-108662000D01*
X117832000Y-108730000D01*
X117773000Y-108801000D01*
X117708000Y-108875000D01*
X117637000Y-108951000D01*
X117559000Y-109027000D01*
X117475000Y-109103000D01*
X117384000Y-109177000D01*
X117288000Y-109248000D01*
X117185000Y-109316000D01*
X117076000Y-109379000D01*
X116961000Y-109436000D01*
X116841000Y-109486000D01*
X116714000Y-109528000D01*
X116581000Y-109561000D01*
X116442000Y-109585000D01*
X116298000Y-109597000D01*
X116148000Y-109597000D01*
X115992000Y-109583000D01*
X115830000Y-109556000D01*
X115663000Y-109513000D01*
X115490000Y-109453000D01*
X115311000Y-109376000D01*
X115185000Y-109313000D01*
X115167000Y-109303000D01*
X115082000Y-109253000D01*
X115015000Y-109212000D01*
X114965000Y-109181000D01*
X114821000Y-109091000D01*
X114725000Y-109032000D01*
X114613000Y-108964000D01*
X114486000Y-108888000D01*
X114344000Y-108803000D01*
X114187000Y-108712000D01*
X114017000Y-108614000D01*
X113832000Y-108510000D01*
X113635000Y-108400000D01*
X113424000Y-108285000D01*
X113202000Y-108166000D01*
X112967000Y-108043000D01*
X112720000Y-107917000D01*
X112463000Y-107787000D01*
X112195000Y-107656000D01*
X111916000Y-107523000D01*
X111628000Y-107388000D01*
X111330000Y-107253000D01*
X111023000Y-107118000D01*
X110707000Y-106983000D01*
X110383000Y-106850000D01*
X110051000Y-106718000D01*
X109712000Y-106588000D01*
X109366000Y-106461000D01*
X109014000Y-106337000D01*
X108655000Y-106217000D01*
X108290000Y-106102000D01*
X107921000Y-105991000D01*
X107546000Y-105886000D01*
X107190000Y-105792000D01*
X106650000Y-105665000D01*
X106101000Y-105554000D01*
X105547000Y-105458000D01*
X104991000Y-105378000D01*
X104435000Y-105313000D01*
X104391000Y-105308000D01*
X104747000Y-105487000D01*
X105090000Y-105663000D01*
X105421000Y-105837000D01*
X105742000Y-106010000D01*
X106053000Y-106182000D01*
X106355000Y-106356000D01*
X106649000Y-106531000D01*
X106936000Y-106708000D01*
X107217000Y-106889000D01*
X107494000Y-107075000D01*
X107766000Y-107265000D01*
X108036000Y-107462000D01*
X108304000Y-107666000D01*
X108571000Y-107879000D01*
X108839000Y-108100000D01*
X109107000Y-108331000D01*
X109378000Y-108573000D01*
X109652000Y-108826000D01*
X109929000Y-109092000D01*
X110213000Y-109372000D01*
X110502000Y-109666000D01*
X110798000Y-109976000D01*
X111103000Y-110302000D01*
X111224000Y-110434000D01*
X111234000Y-110447000D01*
X111354000Y-110591000D01*
X111455000Y-110732000D01*
X111537000Y-110870000D01*
X111603000Y-111004000D01*
X111652000Y-111134000D01*
X111685000Y-111261000D01*
X111703000Y-111384000D01*
X111708000Y-111503000D01*
X111698000Y-111618000D01*
X111677000Y-111730000D01*
X111670000Y-111756000D01*
X111622000Y-111889000D01*
X111557000Y-112018000D01*
X111475000Y-112140000D01*
X111377000Y-112257000D01*
X111267000Y-112368000D01*
X111143000Y-112474000D01*
X111009000Y-112573000D01*
X110865000Y-112667000D01*
X110713000Y-112755000D01*
X110554000Y-112837000D01*
X110389000Y-112913000D01*
X110221000Y-112983000D01*
X110188000Y-112995000D01*
X110093000Y-113126000D01*
X109994000Y-113247000D01*
X109891000Y-113358000D01*
X109784000Y-113458000D01*
X109673000Y-113546000D01*
X109559000Y-113619000D01*
X109441000Y-113678000D01*
X109319000Y-113722000D01*
X109194000Y-113748000D01*
X109065000Y-113757000D01*
X108979000Y-113752000D01*
X109171000Y-114033000D01*
X109357000Y-114311000D01*
X109535000Y-114585000D01*
X109706000Y-114855000D01*
X109869000Y-115119000D01*
X110024000Y-115378000D01*
X110173000Y-115631000D01*
X110313000Y-115876000D01*
X110447000Y-116115000D01*
X110573000Y-116345000D01*
X110691000Y-116567000D01*
X110802000Y-116779000D01*
X110906000Y-116982000D01*
X111002000Y-117174000D01*
X111091000Y-117355000D01*
X111172000Y-117524000D01*
X111246000Y-117681000D01*
X111313000Y-117825000D01*
X111373000Y-117956000D01*
X111425000Y-118073000D01*
X111469000Y-118175000D01*
X111506000Y-118262000D01*
X111536000Y-118333000D01*
X111559000Y-118387000D01*
X111574000Y-118425000D01*
X111582000Y-118444000D01*
X111583000Y-118447000D01*
X111583000Y-118448000D01*
X111648000Y-118639000D01*
X111693000Y-118833000D01*
X111720000Y-119027000D01*
X111728000Y-119221000D01*
X111719000Y-119413000D01*
X111691000Y-119603000D01*
X111647000Y-119789000D01*
X111587000Y-119969000D01*
X111510000Y-120144000D01*
X111418000Y-120311000D01*
X111311000Y-120469000D01*
X111189000Y-120618000D01*
X111054000Y-120755000D01*
X110904000Y-120881000D01*
X110741000Y-120994000D01*
X110566000Y-121092000D01*
X110504000Y-121121000D01*
X110316000Y-121197000D01*
X110126000Y-121253000D01*
X109933000Y-121291000D01*
X109740000Y-121310000D01*
X109548000Y-121312000D01*
X109357000Y-121296000D01*
X109169000Y-121262000D01*
X108985000Y-121212000D01*
X108807000Y-121146000D01*
X108635000Y-121063000D01*
X108471000Y-120966000D01*
X108315000Y-120853000D01*
X108170000Y-120725000D01*
X108036000Y-120583000D01*
X107914000Y-120427000D01*
X107806000Y-120257000D01*
X107773000Y-120197000D01*
X107768000Y-120188000D01*
X107754000Y-120162000D01*
X107731000Y-120120000D01*
X107700000Y-120062000D01*
X107659000Y-119988000D01*
X107610000Y-119900000D01*
X107553000Y-119799000D01*
X107486000Y-119683000D01*
X107412000Y-119556000D01*
X107330000Y-119416000D01*
X107239000Y-119265000D01*
X107141000Y-119103000D01*
X107034000Y-118930000D01*
X106920000Y-118749000D01*
X106799000Y-118558000D01*
X106670000Y-118359000D01*
X106534000Y-118153000D01*
X106390000Y-117940000D01*
X106240000Y-117720000D01*
X106082000Y-117495000D01*
X105918000Y-117264000D01*
X105747000Y-117029000D01*
X105569000Y-116791000D01*
X105385000Y-116549000D01*
X105195000Y-116304000D01*
X104998000Y-116058000D01*
X104795000Y-115810000D01*
X104587000Y-115562000D01*
X104372000Y-115314000D01*
X104152000Y-115066000D01*
X103926000Y-114819000D01*
X103694000Y-114575000D01*
X103458000Y-114333000D01*
X103216000Y-114094000D01*
X102968000Y-113859000D01*
X102716000Y-113628000D01*
X102459000Y-113402000D01*
X102197000Y-113182000D01*
X101931000Y-112968000D01*
X101660000Y-112761000D01*
X101385000Y-112562000D01*
X101105000Y-112371000D01*
X100821000Y-112189000D01*
X100623000Y-112069000D01*
X100266000Y-111860000D01*
X99925000Y-111665000D01*
X99598000Y-111482000D01*
X99284000Y-111311000D01*
X98985000Y-111152000D01*
X98698000Y-111004000D01*
X98425000Y-110867000D01*
X98164000Y-110741000D01*
X97916000Y-110624000D01*
X97680000Y-110517000D01*
X97456000Y-110420000D01*
X97243000Y-110330000D01*
X97042000Y-110250000D01*
X96852000Y-110177000D01*
X96672000Y-110111000D01*
X96503000Y-110052000D01*
X96344000Y-110000000D01*
X96195000Y-109954000D01*
X96055000Y-109913000D01*
X95925000Y-109878000D01*
X95803000Y-109848000D01*
X95690000Y-109821000D01*
X95586000Y-109799000D01*
X95489000Y-109781000D01*
X95401000Y-109765000D01*
X95320000Y-109752000D01*
X95245000Y-109741000D01*
X95178000Y-109732000D01*
X95118000Y-109724000D01*
X95063000Y-109717000D01*
X95015000Y-109711000D01*
X94973000Y-109705000D01*
X94964000Y-109703000D01*
X94867000Y-109691000D01*
X94759000Y-109686000D01*
X94641000Y-109687000D01*
X94517000Y-109692000D01*
X94387000Y-109702000D01*
X94257000Y-109714000D01*
X94127000Y-109730000D01*
X94000000Y-109746000D01*
X93880000Y-109764000D01*
X93768000Y-109782000D01*
X93668000Y-109799000D01*
X93581000Y-109814000D01*
X93511000Y-109827000D01*
X93495000Y-109830000D01*
X93362000Y-109945000D01*
X93230000Y-110041000D01*
X93101000Y-110121000D01*
X92976000Y-110186000D01*
X92856000Y-110237000D01*
X92742000Y-110277000D01*
X92635000Y-110306000D01*
X92536000Y-110328000D01*
X92446000Y-110342000D01*
X92367000Y-110351000D01*
X92298000Y-110357000D01*
X92248000Y-110361000D01*
X92045000Y-110368000D01*
X91955000Y-110366000D01*
X91887000Y-110411000D01*
X91855000Y-110442000D01*
X91820000Y-110490000D01*
X91805000Y-110515000D01*
X91753000Y-110603000D01*
X91697000Y-110709000D01*
X91636000Y-110832000D01*
X91592000Y-110923000D01*
X91511000Y-111091000D01*
X91423000Y-111276000D01*
X91326000Y-111477000D01*
X91220000Y-111692000D01*
X91104000Y-111919000D01*
X90977000Y-112157000D01*
X90840000Y-112404000D01*
X90690000Y-112659000D01*
X90529000Y-112921000D01*
X90354000Y-113187000D01*
X90166000Y-113457000D01*
X89963000Y-113728000D01*
X89746000Y-113999000D01*
X89722000Y-114028000D01*
X89561000Y-114210000D01*
X89391000Y-114385000D01*
X89213000Y-114552000D01*
X89028000Y-114712000D01*
X88838000Y-114865000D01*
X88644000Y-115011000D01*
X88447000Y-115149000D01*
X88249000Y-115281000D01*
X88052000Y-115405000D01*
X87856000Y-115523000D01*
X87664000Y-115633000D01*
X87475000Y-115737000D01*
X87293000Y-115833000D01*
X87118000Y-115923000D01*
X86951000Y-116006000D01*
X86795000Y-116082000D01*
X86650000Y-116152000D01*
X86517000Y-116214000D01*
X86399000Y-116270000D01*
X86296000Y-116320000D01*
X86211000Y-116363000D01*
X86183000Y-116377000D01*
X86096000Y-116424000D01*
X85993000Y-116479000D01*
X85875000Y-116544000D01*
X85744000Y-116618000D01*
X85602000Y-116700000D01*
X85448000Y-116790000D01*
X85286000Y-116888000D01*
X85117000Y-116994000D01*
X84942000Y-117108000D01*
X84762000Y-117229000D01*
X84579000Y-117356000D01*
X84394000Y-117490000D01*
X84209000Y-117631000D01*
X84025000Y-117778000D01*
X83844000Y-117931000D01*
X83667000Y-118089000D01*
X83495000Y-118253000D01*
X83331000Y-118422000D01*
X83175000Y-118595000D01*
X83033000Y-118769000D01*
X82923000Y-118916000D01*
X82815000Y-119073000D01*
X82709000Y-119241000D01*
X82605000Y-119417000D01*
X82504000Y-119600000D01*
X82404000Y-119788000D01*
X82308000Y-119982000D01*
X82214000Y-120179000D01*
X82123000Y-120378000D01*
X82035000Y-120578000D01*
X81950000Y-120778000D01*
X81869000Y-120976000D01*
X81791000Y-121172000D01*
X81716000Y-121364000D01*
X81646000Y-121551000D01*
X81579000Y-121731000D01*
X81517000Y-121904000D01*
X81459000Y-122068000D01*
X81405000Y-122223000D01*
X81356000Y-122366000D01*
X81311000Y-122496000D01*
X81272000Y-122613000D01*
X81237000Y-122716000D01*
X81208000Y-122802000D01*
X81184000Y-122870000D01*
X81172000Y-122902000D01*
X81141000Y-122988000D01*
X81107000Y-123094000D01*
X81069000Y-123216000D01*
X81028000Y-123354000D01*
X80985000Y-123506000D01*
X80940000Y-123672000D01*
X80893000Y-123851000D01*
X80845000Y-124040000D01*
X80797000Y-124239000D01*
X80749000Y-124446000D01*
X80701000Y-124661000D01*
X80653000Y-124882000D01*
X80607000Y-125107000D01*
X80563000Y-125337000D01*
X80521000Y-125568000D01*
X80482000Y-125801000D01*
X80474000Y-125854000D01*
X80442000Y-126062000D01*
X80412000Y-126274000D01*
X80383000Y-126488000D01*
X80356000Y-126704000D01*
X80331000Y-126919000D01*
X80307000Y-127133000D01*
X80285000Y-127344000D01*
X80265000Y-127550000D01*
X80246000Y-127751000D01*
X80229000Y-127945000D01*
X80214000Y-128130000D01*
X80200000Y-128305000D01*
X80188000Y-128470000D01*
X80177000Y-128622000D01*
X80168000Y-128760000D01*
X80160000Y-128882000D01*
X80154000Y-128988000D01*
X80150000Y-129076000D01*
X80148000Y-129109000D01*
X80140000Y-129149000D01*
X80122000Y-129177000D01*
X80100000Y-129195000D01*
X80076000Y-129205000D01*
X80057000Y-129210000D01*
X80046000Y-129211000D01*
X80045000Y-129211000D01*
X80018000Y-129207000D01*
X79988000Y-129192000D01*
X79970000Y-129174000D01*
X79960000Y-129160000D01*
X79949000Y-129131000D01*
X79949000Y-129128000D01*
X79946000Y-129109000D01*
X79943000Y-129071000D01*
X79939000Y-129015000D01*
X79937000Y-128995000D01*
X79932000Y-128913000D01*
X79926000Y-128813000D01*
X79919000Y-128694000D01*
X79912000Y-128559000D01*
X79903000Y-128409000D01*
X79894000Y-128245000D01*
X79883000Y-128067000D01*
X79872000Y-127878000D01*
X79860000Y-127677000D01*
X79848000Y-127467000D01*
X79834000Y-127249000D01*
X79820000Y-127023000D01*
X79805000Y-126791000D01*
X79790000Y-126554000D01*
X79774000Y-126313000D01*
X79757000Y-126069000D01*
X79739000Y-125823000D01*
X79721000Y-125578000D01*
X79702000Y-125332000D01*
X79683000Y-125089000D01*
X79663000Y-124849000D01*
X79642000Y-124612000D01*
X79621000Y-124381000D01*
X79599000Y-124157000D01*
X79577000Y-123940000D01*
X79571000Y-123878000D01*
X79546000Y-123653000D01*
X79520000Y-123441000D01*
X79494000Y-123243000D01*
X79467000Y-123060000D01*
X79440000Y-122894000D01*
X79416000Y-122763000D01*
X79400000Y-122688000D01*
X79385000Y-122763000D01*
X79357000Y-122912000D01*
X79330000Y-123079000D01*
X79303000Y-123264000D01*
X79277000Y-123464000D01*
X79251000Y-123678000D01*
X79229000Y-123878000D01*
X79207000Y-124093000D01*
X79185000Y-124315000D01*
X79164000Y-124545000D01*
X79143000Y-124779000D01*
X79123000Y-125019000D01*
X79103000Y-125261000D01*
X79084000Y-125506000D01*
X79048000Y-125998000D01*
X79031000Y-126242000D01*
X79015000Y-126484000D01*
X78999000Y-126722000D01*
X78984000Y-126956000D01*
X78970000Y-127184000D01*
X78956000Y-127404000D01*
X78943000Y-127617000D01*
X78931000Y-127820000D01*
X78920000Y-128013000D01*
X78909000Y-128194000D01*
X78900000Y-128363000D01*
X78891000Y-128517000D01*
X78883000Y-128657000D01*
X78876000Y-128780000D01*
X78869000Y-128886000D01*
X78864000Y-128973000D01*
X78863000Y-128995000D01*
X78858000Y-129057000D01*
X78855000Y-129100000D01*
X78852000Y-129125000D01*
X78841000Y-129158000D01*
X78831000Y-129173000D01*
X78831000Y-129174000D01*
X78802000Y-129198000D01*
X78773000Y-129209000D01*
X78755000Y-129211000D01*
X78745000Y-129210000D01*
X78726000Y-129206000D01*
X78703000Y-129197000D01*
X78680000Y-129180000D01*
X78662000Y-129153000D01*
X78652000Y-129115000D01*
X78652000Y-129109000D01*
X78648000Y-129029000D01*
X78643000Y-128931000D01*
X78636000Y-128815000D01*
X78627000Y-128684000D01*
X78617000Y-128538000D01*
X78606000Y-128379000D01*
X78592000Y-128208000D01*
X78578000Y-128026000D01*
X78561000Y-127836000D01*
X78543000Y-127638000D01*
X78524000Y-127434000D01*
X78502000Y-127225000D01*
X78480000Y-127013000D01*
X78455000Y-126798000D01*
X78429000Y-126582000D01*
X78401000Y-126367000D01*
X78372000Y-126154000D01*
X78341000Y-125944000D01*
X78326000Y-125854000D01*
X78288000Y-125621000D01*
X78246000Y-125389000D01*
X78203000Y-125159000D01*
X78157000Y-124932000D01*
X78110000Y-124710000D01*
X78062000Y-124494000D01*
X78014000Y-124285000D01*
X77966000Y-124084000D01*
X77918000Y-123893000D01*
X77871000Y-123712000D01*
X77825000Y-123543000D01*
X77781000Y-123387000D01*
X77740000Y-123246000D01*
X77701000Y-123120000D01*
X77666000Y-123011000D01*
X77634000Y-122920000D01*
X77628000Y-122902000D01*
X77607000Y-122843000D01*
X77580000Y-122767000D01*
X77549000Y-122674000D01*
X77512000Y-122565000D01*
X77470000Y-122442000D01*
X77424000Y-122306000D01*
X77373000Y-122158000D01*
X77317000Y-121999000D01*
X77257000Y-121831000D01*
X77193000Y-121655000D01*
X77124000Y-121472000D01*
X77052000Y-121282000D01*
X76976000Y-121089000D01*
X76897000Y-120892000D01*
X76814000Y-120692000D01*
X76728000Y-120492000D01*
X76639000Y-120292000D01*
X76546000Y-120094000D01*
X76451000Y-119899000D01*
X76354000Y-119707000D01*
X76253000Y-119521000D01*
X76151000Y-119341000D01*
X76046000Y-119168000D01*
X75939000Y-119005000D01*
X75831000Y-118851000D01*
X75768000Y-118769000D01*
X75621000Y-118590000D01*
X75465000Y-118417000D01*
X75300000Y-118248000D01*
X75128000Y-118085000D01*
X74951000Y-117926000D01*
X74770000Y-117774000D01*
X74586000Y-117627000D01*
X74401000Y-117487000D01*
X74216000Y-117353000D01*
X74033000Y-117225000D01*
X73853000Y-117105000D01*
X73678000Y-116991000D01*
X73509000Y-116886000D01*
X73347000Y-116787000D01*
X73194000Y-116697000D01*
X73052000Y-116616000D01*
X72921000Y-116542000D01*
X72804000Y-116478000D01*
X72701000Y-116422000D01*
X72617000Y-116377000D01*
X72538000Y-116337000D01*
X72442000Y-116290000D01*
X72330000Y-116237000D01*
X72203000Y-116176000D01*
X72062000Y-116110000D01*
X71910000Y-116036000D01*
X71747000Y-115956000D01*
X71575000Y-115869000D01*
X71395000Y-115775000D01*
X71209000Y-115674000D01*
X71018000Y-115566000D01*
X70823000Y-115451000D01*
X70626000Y-115329000D01*
X70428000Y-115200000D01*
X70231000Y-115065000D01*
X70036000Y-114922000D01*
X69844000Y-114771000D01*
X69657000Y-114614000D01*
X69476000Y-114450000D01*
X69303000Y-114278000D01*
X69139000Y-114099000D01*
X69079000Y-114028000D01*
X68859000Y-113757000D01*
X68655000Y-113486000D01*
X68466000Y-113216000D01*
X68289000Y-112949000D01*
X68126000Y-112687000D01*
X67976000Y-112431000D01*
X67837000Y-112183000D01*
X67709000Y-111944000D01*
X67592000Y-111715000D01*
X67485000Y-111499000D01*
X67387000Y-111297000D01*
X67298000Y-111110000D01*
X67216000Y-110940000D01*
X67208000Y-110923000D01*
X67143000Y-110789000D01*
X67083000Y-110671000D01*
X67029000Y-110571000D01*
X66995000Y-110515000D01*
X66959000Y-110460000D01*
X66926000Y-110422000D01*
X66913000Y-110411000D01*
X66849000Y-110369000D01*
X66652000Y-110361000D01*
X66594000Y-110357000D01*
X66525000Y-110351000D01*
X66444000Y-110341000D01*
X66353000Y-110326000D01*
X66253000Y-110303000D01*
X66145000Y-110273000D01*
X66031000Y-110232000D01*
X65910000Y-110179000D01*
X65785000Y-110113000D01*
X65655000Y-110032000D01*
X65523000Y-109933000D01*
X65404000Y-109830000D01*
X65339000Y-109818000D01*
X65256000Y-109803000D01*
X65159000Y-109787000D01*
X65050000Y-109769000D01*
X64932000Y-109751000D01*
X64807000Y-109734000D01*
X64677000Y-109718000D01*
X64546000Y-109705000D01*
X64417000Y-109694000D01*
X64291000Y-109688000D01*
X64171000Y-109686000D01*
X64060000Y-109689000D01*
X63960000Y-109699000D01*
X63936000Y-109703000D01*
X63895000Y-109710000D01*
X63848000Y-109716000D01*
X63795000Y-109723000D01*
X63736000Y-109730000D01*
X63670000Y-109739000D01*
X63598000Y-109749000D01*
X63518000Y-109762000D01*
X63432000Y-109777000D01*
X63337000Y-109795000D01*
X63234000Y-109816000D01*
X63123000Y-109841000D01*
X63004000Y-109870000D01*
X62876000Y-109905000D01*
X62738000Y-109944000D01*
X62591000Y-109989000D01*
X62434000Y-110039000D01*
X62268000Y-110096000D01*
X62091000Y-110160000D01*
X61903000Y-110232000D01*
X61704000Y-110311000D01*
X61494000Y-110398000D01*
X61273000Y-110494000D01*
X61040000Y-110598000D01*
X60795000Y-110713000D01*
X60537000Y-110837000D01*
X60267000Y-110971000D01*
X59983000Y-111116000D01*
X59687000Y-111273000D01*
X59376000Y-111441000D01*
X59052000Y-111621000D01*
X58714000Y-111813000D01*
X58362000Y-112019000D01*
X58277000Y-112069000D01*
X57990000Y-112244000D01*
X57708000Y-112429000D01*
X57430000Y-112623000D01*
X57156000Y-112825000D01*
X56886000Y-113034000D01*
X56621000Y-113249000D01*
X56361000Y-113471000D01*
X56105000Y-113699000D01*
X55854000Y-113931000D01*
X55609000Y-114167000D01*
X55368000Y-114407000D01*
X55133000Y-114650000D01*
X54903000Y-114895000D01*
X54679000Y-115142000D01*
X54461000Y-115390000D01*
X54248000Y-115639000D01*
X54041000Y-115887000D01*
X53840000Y-116134000D01*
X53645000Y-116380000D01*
X53457000Y-116624000D01*
X53275000Y-116865000D01*
X53099000Y-117102000D01*
X52930000Y-117336000D01*
X52768000Y-117565000D01*
X52613000Y-117789000D01*
X52464000Y-118006000D01*
X52323000Y-118218000D01*
X52189000Y-118422000D01*
X52062000Y-118618000D01*
X51943000Y-118806000D01*
X51831000Y-118985000D01*
X51728000Y-119154000D01*
X51632000Y-119312000D01*
X51544000Y-119460000D01*
X51464000Y-119596000D01*
X51392000Y-119720000D01*
X51328000Y-119831000D01*
X51273000Y-119929000D01*
X51227000Y-120013000D01*
X51189000Y-120081000D01*
X51160000Y-120135000D01*
X51140000Y-120172000D01*
X51129000Y-120193000D01*
X51127000Y-120197000D01*
X51024000Y-120371000D01*
X50906000Y-120532000D01*
X50776000Y-120679000D01*
X50635000Y-120811000D01*
X50482000Y-120929000D01*
X50321000Y-121032000D01*
X50151000Y-121120000D01*
X49975000Y-121192000D01*
X49793000Y-121247000D01*
X49606000Y-121286000D01*
X49416000Y-121308000D01*
X49224000Y-121313000D01*
X49031000Y-121300000D01*
X48838000Y-121268000D01*
X48647000Y-121218000D01*
X48458000Y-121149000D01*
X48396000Y-121121000D01*
X48216000Y-121028000D01*
X48049000Y-120920000D01*
X47895000Y-120799000D01*
X47754000Y-120665000D01*
X47628000Y-120520000D01*
X47516000Y-120365000D01*
X47418000Y-120201000D01*
X47337000Y-120029000D01*
X47271000Y-119850000D01*
X47221000Y-119666000D01*
X47188000Y-119477000D01*
X47173000Y-119286000D01*
X47175000Y-119092000D01*
X47195000Y-118898000D01*
X47234000Y-118704000D01*
X47292000Y-118512000D01*
X47316000Y-118448000D01*
X47316000Y-118447000D01*
X47320000Y-118438000D01*
X47331000Y-118411000D01*
X47349000Y-118366000D01*
X47375000Y-118305000D01*
X47408000Y-118227000D01*
X47448000Y-118134000D01*
X47496000Y-118026000D01*
X47551000Y-117903000D01*
X47613000Y-117767000D01*
X47683000Y-117617000D01*
X47760000Y-117455000D01*
X47845000Y-117280000D01*
X47937000Y-117095000D01*
X48036000Y-116898000D01*
X48143000Y-116691000D01*
X48257000Y-116475000D01*
X48379000Y-116250000D01*
X48508000Y-116016000D01*
X48644000Y-115774000D01*
X48788000Y-115526000D01*
X48940000Y-115270000D01*
X49098000Y-115009000D01*
X49265000Y-114742000D01*
X49438000Y-114471000D01*
X49619000Y-114195000D01*
X49808000Y-113916000D01*
X49921000Y-113752000D01*
X49790000Y-113756000D01*
X49663000Y-113741000D01*
X49539000Y-113709000D01*
X49419000Y-113660000D01*
X49302000Y-113596000D01*
X49189000Y-113517000D01*
X49079000Y-113426000D01*
X48973000Y-113322000D01*
X48872000Y-113207000D01*
X48774000Y-113083000D01*
X48712000Y-112995000D01*
X48542000Y-112927000D01*
X48377000Y-112852000D01*
X48217000Y-112771000D01*
X48063000Y-112685000D01*
X47917000Y-112592000D01*
X47781000Y-112493000D01*
X47656000Y-112389000D01*
X47542000Y-112279000D01*
X47442000Y-112163000D01*
X47357000Y-112042000D01*
X47289000Y-111914000D01*
X47237000Y-111782000D01*
X47230000Y-111756000D01*
X47205000Y-111645000D01*
X47193000Y-111531000D01*
X47194000Y-111412000D01*
X47209000Y-111290000D01*
X47238000Y-111164000D01*
X47284000Y-111035000D01*
X47345000Y-110902000D01*
X47424000Y-110765000D01*
X47520000Y-110625000D01*
X47636000Y-110481000D01*
X47666000Y-110447000D01*
X47675000Y-110434000D01*
X47983000Y-110102000D01*
X48283000Y-109786000D01*
X48574000Y-109486000D01*
X48860000Y-109200000D01*
X49140000Y-108929000D01*
X49415000Y-108671000D01*
X49687000Y-108424000D01*
X49956000Y-108189000D01*
X50223000Y-107964000D01*
X50491000Y-107749000D01*
X50758000Y-107541000D01*
X51027000Y-107342000D01*
X51299000Y-107149000D01*
X51573000Y-106961000D01*
X51853000Y-106779000D01*
X52138000Y-106600000D01*
X52429000Y-106424000D01*
X52728000Y-106250000D01*
X53035000Y-106077000D01*
X53351000Y-105905000D01*
X53678000Y-105731000D01*
X54017000Y-105556000D01*
X54368000Y-105379000D01*
X54509000Y-105308000D01*
X53953000Y-105373000D01*
X53396000Y-105452000D01*
X52842000Y-105546000D01*
X52293000Y-105656000D01*
X51751000Y-105782000D01*
X51709000Y-105792000D01*
X51330000Y-105892000D01*
X50956000Y-105998000D01*
X50587000Y-106109000D01*
X50222000Y-106225000D01*
X49864000Y-106345000D01*
X49512000Y-106469000D01*
X49166000Y-106596000D01*
X48828000Y-106726000D01*
X48496000Y-106858000D01*
X48173000Y-106992000D01*
X47858000Y-107126000D01*
X47551000Y-107261000D01*
X47254000Y-107396000D01*
X46966000Y-107531000D01*
X46688000Y-107664000D01*
X46421000Y-107795000D01*
X46164000Y-107924000D01*
X45918000Y-108051000D01*
X45684000Y-108174000D01*
X45462000Y-108293000D01*
X45252000Y-108407000D01*
X45055000Y-108516000D01*
X44872000Y-108620000D01*
X44702000Y-108718000D01*
X44546000Y-108809000D01*
X44405000Y-108892000D01*
X44279000Y-108968000D01*
X44168000Y-109036000D01*
X44073000Y-109094000D01*
X43994000Y-109143000D01*
X43935000Y-109181000D01*
X43760000Y-109282000D01*
X43588000Y-109365000D01*
X43420000Y-109430000D01*
X43255000Y-109478000D01*
X43094000Y-109511000D01*
X42937000Y-109530000D01*
X42785000Y-109535000D01*
X42636000Y-109528000D01*
X42492000Y-109509000D01*
X42353000Y-109480000D01*
X42219000Y-109442000D01*
X42090000Y-109397000D01*
X41966000Y-109344000D01*
X41847000Y-109285000D01*
X41734000Y-109221000D01*
X41627000Y-109153000D01*
X41526000Y-109082000D01*
X41431000Y-109010000D01*
X41423000Y-109004000D01*
X41322000Y-108919000D01*
X41230000Y-108836000D01*
X41147000Y-108754000D01*
X41073000Y-108677000D01*
X41009000Y-108606000D01*
X40955000Y-108542000D01*
X40911000Y-108488000D01*
X40877000Y-108444000D01*
X40854000Y-108412000D01*
X40842000Y-108395000D01*
X40841000Y-108392000D01*
X40830000Y-108370000D01*
X40814000Y-108337000D01*
X40794000Y-108294000D01*
X40771000Y-108240000D01*
X40746000Y-108177000D01*
X40720000Y-108105000D01*
X40694000Y-108024000D01*
X40669000Y-107936000D01*
X40646000Y-107840000D01*
X40627000Y-107738000D01*
X40611000Y-107630000D01*
X40601000Y-107516000D01*
X40597000Y-107398000D01*
X40600000Y-107275000D01*
X40612000Y-107149000D01*
X40633000Y-107019000D01*
X40665000Y-106888000D01*
X40708000Y-106754000D01*
X40764000Y-106619000D01*
X40833000Y-106483000D01*
X40917000Y-106347000D01*
X41017000Y-106212000D01*
X41133000Y-106077000D01*
X41267000Y-105945000D01*
X41415000Y-105819000D01*
X41503000Y-105749000D01*
X41475000Y-105544000D01*
X41456000Y-105343000D01*
X41447000Y-105148000D01*
X41446000Y-104961000D01*
X41455000Y-104783000D01*
X41471000Y-104618000D01*
X41496000Y-104467000D01*
X41523000Y-104356000D01*
X41560000Y-104243000D01*
X41603000Y-104146000D01*
X41653000Y-104067000D01*
X41708000Y-104005000D01*
X41719000Y-103996000D01*
X42161000Y-103634000D01*
X42596000Y-103290000D01*
X43025000Y-102963000D01*
X43446000Y-102653000D01*
X43862000Y-102359000D01*
X44271000Y-102081000D01*
X44675000Y-101819000D01*
X45073000Y-101571000D01*
X45467000Y-101338000D01*
X45856000Y-101118000D01*
X46241000Y-100912000D01*
X46622000Y-100718000D01*
X47000000Y-100537000D01*
X47374000Y-100367000D01*
X47746000Y-100208000D01*
X48115000Y-100060000D01*
X48482000Y-99923000D01*
X48848000Y-99794000D01*
X49212000Y-99675000D01*
X49575000Y-99564000D01*
X49937000Y-99461000D01*
X50299000Y-99366000D01*
X50661000Y-99278000D01*
X51023000Y-99196000D01*
X51386000Y-99120000D01*
X51750000Y-99049000D01*
X52115000Y-98984000D01*
X52482000Y-98922000D01*
X52852000Y-98865000D01*
X53223000Y-98811000D01*
X53598000Y-98759000D01*
X53686000Y-98748000D01*
X53869000Y-98724000D01*
X53421000Y-98663000D01*
X52992000Y-98597000D01*
X52581000Y-98527000D01*
X52187000Y-98452000D01*
X51811000Y-98372000D01*
X51452000Y-98289000D01*
X51108000Y-98201000D01*
X50781000Y-98110000D01*
X50468000Y-98015000D01*
X50170000Y-97916000D01*
X49886000Y-97815000D01*
X49615000Y-97710000D01*
X49358000Y-97601000D01*
X49112000Y-97491000D01*
X48879000Y-97377000D01*
X48657000Y-97261000D01*
X48445000Y-97142000D01*
X48244000Y-97022000D01*
X48052000Y-96899000D01*
X47870000Y-96774000D01*
X47696000Y-96648000D01*
X47531000Y-96520000D01*
X47372000Y-96391000D01*
X47221000Y-96260000D01*
X47077000Y-96128000D01*
X46938000Y-95996000D01*
X46805000Y-95863000D01*
X46676000Y-95729000D01*
X46552000Y-95595000D01*
X46431000Y-95460000D01*
X46314000Y-95326000D01*
X46200000Y-95191000D01*
X46087000Y-95057000D01*
X45977000Y-94923000D01*
X45867000Y-94790000D01*
X45758000Y-94657000D01*
X45649000Y-94526000D01*
X45539000Y-94395000D01*
X45429000Y-94266000D01*
X45316000Y-94138000D01*
X45202000Y-94011000D01*
X45085000Y-93886000D01*
X45013000Y-93812000D01*
X44839000Y-93634000D01*
X44678000Y-93469000D01*
X44531000Y-93317000D01*
X44395000Y-93175000D01*
X44270000Y-93045000D01*
X44156000Y-92925000D01*
X44050000Y-92815000D01*
X43952000Y-92714000D01*
X43860000Y-92621000D01*
X43775000Y-92537000D01*
X43695000Y-92459000D01*
X43619000Y-92388000D01*
X43546000Y-92323000D01*
X43475000Y-92264000D01*
X43405000Y-92209000D01*
X43335000Y-92158000D01*
X43264000Y-92110000D01*
X43191000Y-92066000D01*
X43116000Y-92024000D01*
X43036000Y-91983000D01*
X42952000Y-91943000D01*
X42862000Y-91904000D01*
X42765000Y-91864000D01*
X42660000Y-91824000D01*
X42547000Y-91782000D01*
X42511000Y-91769000D01*
X42273000Y-91691000D01*
X42043000Y-91630000D01*
X41821000Y-91587000D01*
X41606000Y-91559000D01*
X41399000Y-91545000D01*
X41199000Y-91546000D01*
X41006000Y-91560000D01*
X40821000Y-91585000D01*
X40643000Y-91622000D01*
X40472000Y-91669000D01*
X40308000Y-91725000D01*
X40152000Y-91789000D01*
X40003000Y-91861000D01*
X39860000Y-91939000D01*
X39725000Y-92023000D01*
X39597000Y-92111000D01*
X39476000Y-92203000D01*
X39362000Y-92298000D01*
X39255000Y-92394000D01*
X39155000Y-92491000D01*
X39061000Y-92589000D01*
X38974000Y-92685000D01*
X38895000Y-92779000D01*
X38821000Y-92871000D01*
X38755000Y-92958000D01*
X38695000Y-93042000D01*
X38642000Y-93119000D01*
X38595000Y-93190000D01*
X38555000Y-93253000D01*
X38521000Y-93308000D01*
X38494000Y-93354000D01*
X38480000Y-93379000D01*
X38454000Y-93420000D01*
X38436000Y-93445000D01*
X38429000Y-93453000D01*
X38397000Y-93473000D01*
X38367000Y-93479000D01*
X38341000Y-93476000D01*
X38325000Y-93471000D01*
X38313000Y-93465000D01*
X38296000Y-93453000D01*
X38279000Y-93435000D01*
X38266000Y-93409000D01*
X38262000Y-93374000D01*
X38266000Y-93349000D01*
X38372000Y-92946000D01*
X38473000Y-92562000D01*
X38571000Y-92196000D01*
X38666000Y-91848000D01*
X38757000Y-91516000D01*
X38845000Y-91201000D01*
X38931000Y-90901000D01*
X39014000Y-90615000D01*
X39094000Y-90344000D01*
X39173000Y-90085000D01*
X39251000Y-89840000D01*
X39327000Y-89606000D01*
X39401000Y-89383000D01*
X39475000Y-89171000D01*
X39549000Y-88969000D01*
X39622000Y-88776000D01*
X39694000Y-88591000D01*
X39768000Y-88414000D01*
X39841000Y-88244000D01*
X39915000Y-88081000D01*
X39990000Y-87923000D01*
X40067000Y-87770000D01*
X40145000Y-87621000D01*
X40224000Y-87476000D01*
X40306000Y-87333000D01*
X40390000Y-87193000D01*
X40476000Y-87054000D01*
X40565000Y-86916000D01*
X40658000Y-86778000D01*
X40753000Y-86640000D01*
X40853000Y-86500000D01*
X40880000Y-86463000D01*
X40852000Y-86428000D01*
X40834000Y-86383000D01*
X40820000Y-86320000D01*
X40816000Y-86290000D01*
X40810000Y-86220000D01*
X40803000Y-86137000D01*
X40795000Y-86041000D01*
X40782000Y-85935000D01*
X40763000Y-85819000D01*
X40736000Y-85696000D01*
X40699000Y-85566000D01*
X40649000Y-85432000D01*
X40585000Y-85294000D01*
X40505000Y-85154000D01*
X40435000Y-85052000D01*
X40363000Y-84970000D01*
X40276000Y-84894000D01*
X40176000Y-84824000D01*
X40066000Y-84759000D01*
X39950000Y-84699000D01*
X39850000Y-84653000D01*
X39735000Y-84605000D01*
X39622000Y-84561000D01*
X39512000Y-84522000D01*
X39409000Y-84487000D01*
X39313000Y-84456000D01*
X39227000Y-84430000D01*
X39154000Y-84408000D01*
X39096000Y-84391000D01*
X39054000Y-84378000D01*
X39049000Y-84376000D01*
X39012000Y-84359000D01*
X38989000Y-84335000D01*
X38977000Y-84310000D01*
X38972000Y-84287000D01*
X38972000Y-84285000D01*
X38974000Y-84253000D01*
X38988000Y-84219000D01*
X38994000Y-84211000D01*
X39009000Y-84196000D01*
X39039000Y-84177000D01*
X39067000Y-84165000D01*
X39579000Y-83971000D01*
X40074000Y-83767000D01*
X40554000Y-83553000D01*
X41017000Y-83330000D01*
X41464000Y-83097000D01*
X41896000Y-82856000D01*
X42313000Y-82607000D01*
X42715000Y-82350000D01*
X43102000Y-82085000D01*
X43475000Y-81814000D01*
X43834000Y-81537000D01*
X44180000Y-81253000D01*
X44512000Y-80964000D01*
X44830000Y-80669000D01*
X45136000Y-80370000D01*
X45429000Y-80067000D01*
X45710000Y-79760000D01*
X45978000Y-79449000D01*
X46235000Y-79136000D01*
X46481000Y-78820000D01*
X46715000Y-78502000D01*
X46938000Y-78183000D01*
X47151000Y-77862000D01*
X47353000Y-77541000D01*
X47545000Y-77220000D01*
X47727000Y-76898000D01*
X47899000Y-76577000D01*
X48063000Y-76257000D01*
X48217000Y-75939000D01*
X48362000Y-75623000D01*
X48500000Y-75309000D01*
X48628000Y-74998000D01*
X48750000Y-74690000D01*
X48863000Y-74385000D01*
X48969000Y-74085000D01*
X49068000Y-73789000D01*
X49160000Y-73499000D01*
X49246000Y-73213000D01*
X49326000Y-72934000D01*
X49399000Y-72661000D01*
X49467000Y-72395000D01*
X49530000Y-72136000D01*
X49588000Y-71884000D01*
X49640000Y-71641000D01*
X49688000Y-71406000D01*
X49732000Y-71180000D01*
X49772000Y-70964000D01*
X49808000Y-70757000D01*
X49841000Y-70560000D01*
X49871000Y-70375000D01*
X49898000Y-70200000D01*
X49922000Y-70037000D01*
X49944000Y-69886000D01*
X49963000Y-69748000D01*
X49981000Y-69622000D01*
X49984000Y-69607000D01*
X50020000Y-69343000D01*
X50050000Y-69084000D01*
X50074000Y-68831000D01*
X50091000Y-68583000D01*
X50101000Y-68337000D01*
X50104000Y-68095000D01*
X50099000Y-67854000D01*
X50086000Y-67614000D01*
X50064000Y-67374000D01*
X50033000Y-67133000D01*
X49994000Y-66890000D01*
X49944000Y-66645000D01*
X49885000Y-66397000D01*
X49815000Y-66144000D01*
X49735000Y-65886000D01*
X49643000Y-65621000D01*
X49540000Y-65350000D01*
X49426000Y-65071000D01*
X49299000Y-64784000D01*
X49159000Y-64486000D01*
X49007000Y-64179000D01*
X48842000Y-63860000D01*
X48663000Y-63529000D01*
X48469000Y-63185000D01*
X48461000Y-63169000D01*
X48335000Y-62946000D01*
X48212000Y-62717000D01*
X48091000Y-62483000D01*
X47973000Y-62242000D01*
X47857000Y-61995000D01*
X47743000Y-61741000D01*
X47632000Y-61480000D01*
X47523000Y-61211000D01*
X47417000Y-60934000D01*
X47314000Y-60649000D01*
X47214000Y-60356000D01*
X47117000Y-60053000D01*
X47024000Y-59740000D01*
X46933000Y-59418000D01*
X46846000Y-59086000D01*
X46762000Y-58744000D01*
X46682000Y-58390000D01*
X46605000Y-58026000D01*
X46532000Y-57649000D01*
X46463000Y-57261000D01*
X46398000Y-56860000D01*
X46337000Y-56447000D01*
X46281000Y-56021000D01*
X46228000Y-55581000D01*
X46180000Y-55128000D01*
X46136000Y-54660000D01*
X46096000Y-54178000D01*
X46062000Y-53681000D01*
X46032000Y-53169000D01*
X46007000Y-52641000D01*
X45986000Y-52098000D01*
X45971000Y-51538000D01*
X45961000Y-50961000D01*
X45956000Y-50367000D01*
X45957000Y-49756000D01*
X45963000Y-49127000D01*
X45974000Y-48480000D01*
X45991000Y-47815000D01*
X46009000Y-47267000D01*
X46033000Y-46739000D01*
X46067000Y-46216000D01*
X46110000Y-45697000D01*
X46162000Y-45184000D01*
X46222000Y-44675000D01*
X46291000Y-44172000D01*
X46367000Y-43675000D01*
X46451000Y-43184000D01*
X46541000Y-42699000D01*
X46638000Y-42220000D01*
X46741000Y-41749000D01*
X46850000Y-41284000D01*
X46964000Y-40826000D01*
X47082000Y-40376000D01*
X47205000Y-39934000D01*
X47332000Y-39500000D01*
X47462000Y-39074000D01*
X47595000Y-38656000D01*
X47731000Y-38247000D01*
X47870000Y-37847000D01*
X48010000Y-37456000D01*
X48151000Y-37075000D01*
X48294000Y-36703000D01*
X48437000Y-36342000D01*
X48580000Y-35990000D01*
X48723000Y-35649000D01*
X48865000Y-35319000D01*
X49006000Y-34999000D01*
X49146000Y-34691000D01*
X49284000Y-34394000D01*
X49419000Y-34109000D01*
X49552000Y-33836000D01*
X49681000Y-33575000D01*
X49807000Y-33326000D01*
X49928000Y-33090000D01*
X50046000Y-32867000D01*
X50158000Y-32657000D01*
X50265000Y-32460000D01*
X50366000Y-32277000D01*
X50461000Y-32108000D01*
X50550000Y-31953000D01*
X50632000Y-31813000D01*
X50706000Y-31687000D01*
X50772000Y-31576000D01*
X50830000Y-31480000D01*
X50880000Y-31400000D01*
X50920000Y-31335000D01*
X50951000Y-31286000D01*
X50972000Y-31253000D01*
X50983000Y-31237000D01*
X50984000Y-31234000D01*
X51015000Y-31204000D01*
X51055000Y-31190000D01*
X51093000Y-31193000D01*
M02*
